<svg width="28" height="28" viewBox="0 0 28 28" fill="none" xmlns="http://www.w3.org/2000/svg">
<g clip-path="url(#clip0_2_1821)">
<path d="M0 0H28V28H0V0Z" fill="#CF4547"/>
<path d="M9.68817 14.1866C9.67501 14.2058 9.65197 14.2655 9.61797 14.367C9.58397 14.4685 9.54283 14.5952 9.49457 14.7476C9.44631 14.9001 9.39366 15.0712 9.33772 15.2599C9.28123 15.4485 9.2231 15.6416 9.16386 15.8379C9.10408 16.0348 9.04705 16.2273 8.9922 16.4165C8.93736 16.6052 8.888 16.7763 8.84467 16.9288C8.80135 17.0812 8.76515 17.209 8.73608 17.3127C8.70702 17.4158 8.68947 17.4766 8.68288 17.4958C8.66698 17.5567 8.6412 17.6247 8.60555 17.6993C8.56991 17.7739 8.52822 17.8441 8.47996 17.911C8.4317 17.9779 8.3785 18.0333 8.32037 18.0772C8.26223 18.1211 8.20245 18.143 8.14158 18.143C8.03847 18.143 7.96333 18.1084 7.91672 18.0399C7.8701 17.9713 7.84652 17.8452 7.84652 17.662V17.5819C7.84652 17.5551 7.84816 17.5266 7.85145 17.4964C7.85474 17.4355 7.87888 17.3209 7.92385 17.1525C7.96882 16.9847 8.02311 16.7949 8.08564 16.5827C8.14816 16.3704 8.21616 16.1516 8.28856 15.924C8.36095 15.697 8.42622 15.4935 8.48435 15.3142C8.31324 15.505 8.12841 15.6948 7.92823 15.884C7.7286 16.0732 7.52349 16.2427 7.31453 16.3935C7.10503 16.5443 6.89388 16.6677 6.68109 16.7626C6.46829 16.858 6.26373 16.9057 6.06739 16.9057C5.84198 16.9057 5.64783 16.8558 5.48495 16.7571C5.32206 16.6578 5.18769 16.5278 5.0813 16.3677C4.9749 16.2076 4.89592 16.026 4.84437 15.8237C4.79282 15.6213 4.76704 15.4189 4.76704 15.2165V15.1419C4.76704 15.1189 4.76869 15.0964 4.77198 15.0734C4.79117 14.707 4.84382 14.3308 4.92883 13.9453C5.01439 13.5597 5.12627 13.1758 5.26502 12.7946C5.40378 12.4129 5.56392 12.04 5.746 11.6753C5.92808 11.3106 6.12607 10.9661 6.34051 10.642C6.55495 10.3179 6.78255 10.019 7.02441 9.74586C7.26627 9.47273 7.51416 9.238 7.76864 9.04166C8.02311 8.84532 8.28033 8.69176 8.53974 8.58097C8.79915 8.47019 9.05637 8.41479 9.31084 8.41479C9.60426 8.41479 9.8878 8.49487 10.1615 8.65501C10.4351 8.81515 10.6913 9.07511 10.9298 9.43379C10.9847 9.51387 11.0192 9.59503 11.0335 9.6773C11.0477 9.75957 11.0554 9.8369 11.0554 9.90929C11.0554 10.081 11.0143 10.2164 10.932 10.3157C10.8498 10.415 10.7521 10.4643 10.6397 10.4643C10.5366 10.4643 10.4406 10.41 10.3523 10.3009C10.2635 10.1923 10.1648 10.0365 10.0551 9.83415C9.95197 9.65098 9.83844 9.51825 9.7145 9.43599C9.59055 9.35372 9.45563 9.31314 9.31084 9.31314C9.08544 9.31314 8.84413 9.40692 8.58801 9.59394C8.33188 9.78096 8.07796 10.0283 7.82677 10.3354C7.57559 10.6426 7.33428 10.9936 7.10393 11.389C6.87359 11.7839 6.66957 12.1886 6.49243 12.6027C6.31528 13.0167 6.17433 13.4253 6.06958 13.8279C5.96483 14.2304 5.91273 14.5924 5.91273 14.9132C5.91273 15.0202 5.91986 15.1299 5.93467 15.2423C5.94947 15.3547 5.97635 15.4573 6.01693 15.5489C6.05697 15.6405 6.11181 15.7162 6.18146 15.7748C6.25056 15.8341 6.33831 15.8637 6.44471 15.8637C6.56372 15.8637 6.69919 15.8237 6.85056 15.7436C7.00192 15.6635 7.15933 15.5588 7.32166 15.4288C7.48455 15.2988 7.64798 15.1518 7.81251 14.9878C7.97705 14.8238 8.13006 14.6577 8.27156 14.4899C8.41305 14.322 8.53919 14.1608 8.64833 14.0061C8.75802 13.8515 8.84029 13.7171 8.89458 13.6025L9.3443 12.2572C9.39914 12.1124 9.47099 12.0093 9.55929 11.9478C9.64813 11.887 9.73918 11.8562 9.83241 11.8562C9.87738 11.8562 9.92235 11.8639 9.96787 11.8793C10.0128 11.8946 10.0534 11.9182 10.0885 11.9511C10.1242 11.9835 10.1521 12.0257 10.173 12.0773C10.1938 12.1288 10.2042 12.1892 10.2042 12.2577C10.2042 12.4409 10.1883 12.6125 10.156 12.7732C10.1236 12.9339 10.0825 13.0902 10.0326 13.2427C9.98268 13.3952 9.92729 13.5493 9.86586 13.7034C9.80554 13.857 9.74576 14.0182 9.68817 14.1866ZM15.7835 15.3087C15.6415 15.4995 15.4764 15.6854 15.2883 15.867C15.0996 16.0485 14.9055 16.2098 14.7058 16.3507C14.5062 16.4917 14.3093 16.6052 14.1163 16.6913C13.9227 16.7774 13.7488 16.8202 13.5941 16.8202C13.4395 16.8202 13.3139 16.7686 13.2168 16.6655C13.1203 16.5624 13.072 16.3869 13.072 16.1385C13.072 15.963 13.0978 15.7584 13.1494 15.5259C13.0654 15.675 12.9607 15.8258 12.8351 15.9783C12.7095 16.1308 12.5658 16.2701 12.4046 16.3962C12.2433 16.5224 12.0629 16.6244 11.8633 16.7023C11.6636 16.7807 11.4459 16.8196 11.2106 16.8196C11.1042 16.8196 11.0017 16.8065 10.9035 16.7796C10.8053 16.7527 10.7192 16.7072 10.6452 16.6425C10.5712 16.5778 10.5114 16.4911 10.4664 16.382C10.4214 16.2734 10.3989 16.1368 10.3989 15.9728C10.3989 15.969 10.4055 15.9109 10.4181 15.7984C10.4308 15.686 10.4719 15.5083 10.5415 15.2659C10.6106 15.0235 10.7181 14.7098 10.8629 14.3242C11.0083 13.9387 11.2128 13.4714 11.4766 12.9213C11.5441 12.7765 11.6225 12.6723 11.7108 12.6093C11.7997 12.5462 11.8951 12.5149 11.9982 12.5149C12.0432 12.5149 12.0898 12.5215 12.1386 12.5347C12.1869 12.5484 12.2318 12.5692 12.2741 12.5977C12.3157 12.6263 12.3497 12.6625 12.3755 12.7063C12.4013 12.7502 12.4145 12.8007 12.4145 12.8582C12.4145 12.8966 12.4095 12.9328 12.3996 12.9668C12.3837 13.0321 12.3492 13.1166 12.2954 13.2219C12.2422 13.3272 12.1803 13.4473 12.1095 13.5827C12.0388 13.7182 11.9636 13.8641 11.8847 14.0209C11.8057 14.1772 11.7322 14.3396 11.6647 14.5074C11.5973 14.6752 11.5391 14.8463 11.4909 15.0196C11.4426 15.1935 11.4152 15.3624 11.4086 15.5264C11.4086 15.595 11.4245 15.658 11.4569 15.7156C11.4892 15.7726 11.5424 15.8017 11.6165 15.8017C11.826 15.8017 12.0256 15.7332 12.2159 15.5955C12.4062 15.4584 12.5817 15.2873 12.743 15.0833C12.9042 14.8792 13.0501 14.6599 13.1806 14.4246C13.3111 14.1899 13.4203 13.9754 13.5069 13.7807C13.5684 13.6507 13.6221 13.5114 13.6687 13.3628C13.7153 13.2142 13.7664 13.0765 13.8212 12.9504C13.876 12.8242 13.9386 12.7195 14.0099 12.6356C14.0806 12.5517 14.1695 12.5094 14.2758 12.5094C14.3916 12.5094 14.4837 12.5533 14.5512 12.6411C14.6186 12.7288 14.6526 12.8341 14.6526 12.9559C14.6526 13.0244 14.6312 13.1193 14.5874 13.2394C14.5435 13.3595 14.4892 13.4972 14.4228 13.6518C14.357 13.8065 14.2852 13.9716 14.2078 14.1471C14.1305 14.3226 14.0587 14.5014 13.9929 14.6824C13.9265 14.8639 13.8722 15.041 13.8283 15.2149C13.785 15.3887 13.7631 15.55 13.7631 15.6986C13.7631 15.8363 13.8338 15.9048 13.9759 15.9048C14.0757 15.9048 14.1996 15.8703 14.3482 15.8017C14.4969 15.7332 14.6521 15.6366 14.815 15.5127C14.9778 15.3887 15.1402 15.2429 15.3031 15.0745C15.466 14.9067 15.6102 14.7251 15.7358 14.5304L15.7835 15.3087Z" fill="white"/>
<path d="M15.9337 15.0223C15.8981 15.11 15.8636 15.212 15.8295 15.3289C15.7955 15.4451 15.7791 15.5493 15.7791 15.6409C15.7791 15.698 15.789 15.744 15.8082 15.7786C15.8274 15.8131 15.8646 15.8301 15.9195 15.8301C15.9869 15.8301 16.0714 15.8065 16.1734 15.7583C16.2749 15.7106 16.3846 15.6475 16.5019 15.5691C16.6198 15.4912 16.7421 15.4012 16.8694 15.2998C16.9966 15.1989 17.1233 15.0936 17.2489 14.985C17.3745 14.8758 17.4946 14.7673 17.6092 14.6587C17.7238 14.5495 17.8258 14.4497 17.9163 14.3581C17.9421 14.3312 17.9728 14.312 18.0079 14.3011C18.043 14.2896 18.0737 14.2841 18.0995 14.2841C18.1637 14.2841 18.2174 14.311 18.2591 14.3641C18.3008 14.4173 18.3216 14.4881 18.3216 14.5758C18.3216 14.6559 18.2991 14.7459 18.2542 14.8451C18.2092 14.9444 18.1302 15.042 18.0172 15.1369C17.811 15.3623 17.6032 15.5757 17.3937 15.778C17.1842 15.9804 16.9758 16.1586 16.7679 16.3133C16.5601 16.468 16.3538 16.5908 16.1493 16.683C15.9447 16.7745 15.7456 16.8201 15.552 16.8201C15.4199 16.8201 15.3096 16.7992 15.2208 16.757C15.1319 16.7148 15.0612 16.6577 15.008 16.5853C14.9548 16.5129 14.917 16.4268 14.8945 16.3276C14.872 16.2283 14.8605 16.1235 14.8605 16.0128C14.8605 15.8257 14.884 15.6338 14.9307 15.4374C14.9773 15.2411 15.0327 15.0607 15.0974 14.8967C15.2104 14.5989 15.3244 14.3033 15.4407 14.0093C15.5564 13.7153 15.6628 13.4461 15.7599 13.202L17.2242 9.50881C17.2823 9.36018 17.3602 9.25488 17.4589 9.19401C17.5571 9.13313 17.6564 9.10242 17.7562 9.10242C17.856 9.10242 17.947 9.13478 18.0293 9.19949C18.1116 9.26421 18.1527 9.36951 18.1527 9.5143C18.1527 9.58285 18.139 9.65579 18.1116 9.73203C18.0842 9.80826 18.0496 9.89053 18.0079 9.97828C17.9273 10.1576 17.8313 10.377 17.7205 10.6364C17.6092 10.8958 17.4902 11.1783 17.363 11.4837C17.2357 11.7892 17.1052 12.1068 16.9714 12.4369C16.8376 12.7671 16.707 13.0885 16.5798 13.4016C16.4526 13.7148 16.3336 14.0115 16.2222 14.2918C16.1098 14.5726 16.0138 14.8161 15.9337 15.0223Z" fill="white"/>
<path d="M22.7832 13.9857C22.8281 13.955 22.8704 13.9303 22.9088 13.9111C22.9472 13.8919 22.9844 13.8826 23.0201 13.8826C23.0908 13.8826 23.144 13.9144 23.1797 13.9769C23.2153 14.04 23.2329 14.1173 23.2329 14.2089C23.2329 14.3082 23.2115 14.4091 23.1676 14.5122C23.1243 14.6153 23.059 14.7008 22.9718 14.7699C22.6269 15.0754 22.3192 15.354 22.0488 15.6058C21.7779 15.8575 21.5229 16.0741 21.2826 16.2557C21.0424 16.4372 20.8082 16.5771 20.5795 16.6763C20.3509 16.7756 20.1057 16.8249 19.8446 16.8249C19.5995 16.8249 19.4103 16.7712 19.2765 16.6648C19.1426 16.5579 19.0757 16.4109 19.0757 16.2239V16.1811C19.0757 16.1679 19.0774 16.1515 19.0807 16.1323C19.0933 16.0176 19.1437 15.886 19.2304 15.7374C19.3176 15.5888 19.4223 15.4341 19.5446 15.2734C19.667 15.1127 19.7975 14.9509 19.9362 14.7869C20.075 14.623 20.2028 14.4672 20.3207 14.3202C20.4381 14.1732 20.5357 14.0389 20.613 13.9166C20.6903 13.7943 20.7293 13.6956 20.7293 13.6188C20.7293 13.5727 20.7128 13.5365 20.681 13.5102C20.6487 13.4833 20.5955 13.4701 20.5214 13.4701C20.3925 13.4701 20.2598 13.5036 20.1227 13.5705C19.9856 13.6374 19.8501 13.7268 19.7169 13.8392C19.583 13.9517 19.4525 14.0806 19.3253 14.2259C19.198 14.3712 19.079 14.5215 18.9677 14.6784C18.8564 14.8352 18.7549 14.9921 18.6633 15.1506C18.5717 15.3091 18.4933 15.4549 18.4291 15.5888C18.4099 15.631 18.3825 15.6902 18.3469 15.7665C18.3112 15.8427 18.2728 15.9288 18.2311 16.0242C18.1889 16.1197 18.145 16.2178 18.0979 16.3187C18.0513 16.4202 18.0085 16.5156 17.9701 16.605C17.9311 16.695 17.8966 16.7745 17.8659 16.8458C17.8352 16.9165 17.8132 16.9648 17.8006 16.9917C17.7842 17.0262 17.7578 17.0909 17.7205 17.1864C17.6833 17.2818 17.641 17.3931 17.5922 17.5215C17.544 17.6492 17.4929 17.7836 17.4403 17.9251C17.3871 18.0666 17.3372 18.1999 17.2906 18.326C17.244 18.4522 17.2028 18.5624 17.1672 18.6578C17.1315 18.7533 17.109 18.818 17.0992 18.8525C17.0668 18.9518 17.029 19.045 16.9856 19.1333C16.9423 19.2211 16.8924 19.2984 16.8359 19.3653C16.7794 19.4322 16.7153 19.4854 16.6423 19.5255C16.5699 19.5655 16.4882 19.5852 16.3983 19.5852C16.282 19.5852 16.1866 19.5573 16.1103 19.5024C16.0347 19.447 15.9968 19.3412 15.9968 19.1849C15.9968 19.1086 16.0067 19.0302 16.0259 18.9501C16.0451 18.8701 16.0698 18.7905 16.0983 18.7127C16.1273 18.6342 16.157 18.558 16.1877 18.484C16.2184 18.4094 16.2463 18.3381 16.2721 18.269C16.446 17.8873 16.6237 17.5045 16.8041 17.1211C16.9845 16.7372 17.1579 16.3577 17.3235 15.9814C17.4897 15.6058 17.6432 15.2361 17.7853 14.8736C17.9268 14.5111 18.0447 14.1634 18.1379 13.8316C18.1637 13.763 18.1993 13.6654 18.2443 13.5393C18.2893 13.4131 18.3408 13.2892 18.399 13.1669C18.4571 13.0446 18.5224 12.9387 18.5948 12.8493C18.6672 12.7594 18.7456 12.7149 18.8289 12.7149C18.9578 12.7149 19.0511 12.7446 19.1092 12.8038C19.1673 12.863 19.1964 12.9497 19.1964 13.0643C19.1964 13.0873 19.1931 13.1235 19.1865 13.1729C19.1799 13.2223 19.1717 13.2749 19.1624 13.3303C19.1525 13.3857 19.1421 13.4383 19.1311 13.4877C19.1196 13.5371 19.1092 13.5733 19.0999 13.5963C19.2189 13.4663 19.3478 13.338 19.4865 13.2096C19.6253 13.0819 19.7684 12.9661 19.917 12.863C20.0651 12.7599 20.2165 12.676 20.3711 12.6107C20.5258 12.546 20.6805 12.5137 20.8351 12.5137C20.9415 12.5137 21.0468 12.529 21.1516 12.5597C21.2563 12.5905 21.3496 12.6349 21.4318 12.6941C21.5141 12.7533 21.581 12.8279 21.6325 12.9173C21.6841 13.0073 21.7099 13.1109 21.7099 13.2294C21.7099 13.3862 21.6704 13.553 21.5914 13.7307C21.5124 13.9084 21.4132 14.0866 21.2942 14.2659C21.1746 14.4453 21.0457 14.6202 20.9075 14.7897C20.7688 14.9597 20.6393 15.1144 20.5181 15.2537C20.3975 15.393 20.296 15.5114 20.2137 15.6085C20.1315 15.7061 20.0887 15.7719 20.0854 15.8059C20.0854 15.852 20.1002 15.8888 20.1287 15.9178C20.1573 15.9469 20.2061 15.9606 20.2741 15.9606C20.3289 15.9606 20.4095 15.9299 20.5159 15.869C20.6223 15.8081 20.7715 15.7023 20.9629 15.5515C21.1543 15.4007 21.3978 15.1983 21.6929 14.9444C21.9879 14.691 22.3516 14.3712 22.7832 13.9857Z" fill="white"/>
</g>
<defs>
<clipPath id="clip0_2_1821">
<rect width="28" height="28" fill="white"/>
</clipPath>
</defs>
</svg>
