<svg width="32" height="32" viewBox="0 0 32 32" fill="none" xmlns="http://www.w3.org/2000/svg">
<path d="M27.616 23.448L16.4667 29.7547V24.8427L23.4134 21.0213L27.616 23.448ZM28.3787 22.7573V9.56802L24.2987 11.9227V20.4L28.3787 22.7573ZM4.33869 23.448L15.488 29.7547V24.8427L8.54135 21.0213L4.33869 23.448ZM3.57602 22.7573V9.56802L7.65602 11.9227V20.4L3.57602 22.7573ZM4.05335 8.71469L15.488 2.24536V6.99469L8.16269 11.024L8.10669 11.056L4.05335 8.71469ZM27.9014 8.71469L16.4667 2.24536V6.99469L23.792 11.024L23.848 11.056L27.9014 8.71469Z" fill="#8ED6FB"/>
<path d="M15.488 23.7253L8.6347 19.9573V12.4907L15.488 16.448V23.7253ZM16.4667 23.7253L23.32 19.9573V12.4907L16.4667 16.448V23.7253ZM9.0987 11.6267L15.9787 7.84265L22.8587 11.6267L15.9787 15.6L9.0987 11.6267Z" fill="#1C78C0"/>
</svg>
