<svg width="24" height="25" viewBox="0 0 24 25" fill="none" xmlns="http://www.w3.org/2000/svg">
<g clip-path="url(#clip0_2_1392)">
<path d="M23.224 1.22828C23.3472 1.09442 23.4155 0.920033 23.4158 0.739079C23.4158 0.544526 23.3381 0.357848 23.1995 0.219697C23.0609 0.0815447 22.8727 0.00310741 22.6759 0.00146484H22.6668L10.3097 0.0076921H10.3006C10.1253 0.00766267 9.95177 0.043485 9.79106 0.112907C9.63035 0.182329 9.48591 0.283851 9.3668 0.411097C8.55126 1.22483 6.46235 3.27921 2.69336 6.80468C-2.34689 11.5189 1.23099 16.1729 1.23099 16.1729L5.84072 20.7294C4.75916 19.587 6.08643 18.0806 6.08643 18.0806L23.1764 1.28156C23.189 1.2698 23.2016 1.25735 23.2135 1.24489L23.2254 1.23244L23.224 1.22828Z" fill="#0094FF"/>
<path d="M23.802 23.7689L23.7978 23.7647L13.7215 13.8173C13.6501 13.7479 13.5656 13.693 13.4728 13.6559C13.3799 13.6189 13.2806 13.6003 13.1804 13.6014C13.0803 13.6024 12.9814 13.623 12.8893 13.6619C12.7973 13.7009 12.7139 13.7575 12.6441 13.8284L7.31543 19.0678C5.96366 20.6717 6.77501 21.4979 6.77501 21.4979L9.91396 24.712C9.99417 24.8018 10.0929 24.8737 10.2035 24.9227C10.3141 24.9718 10.434 24.9969 10.5552 24.9964H23.2279C23.2363 24.9964 23.244 24.9964 23.2531 24.9964C23.3966 24.9956 23.5368 24.9538 23.6567 24.876C23.7767 24.7983 23.8714 24.6879 23.9294 24.5582C23.9874 24.4285 24.0062 24.285 23.9836 24.1449C23.961 24.0049 23.8979 23.8743 23.802 23.7689Z" fill="white"/>
</g>
<defs>
<clipPath id="clip0_2_1392">
<rect width="24" height="25" fill="white"/>
</clipPath>
</defs>
</svg>
