<svg width="1049" height="93" viewBox="0 0 1049 93" fill="none" xmlns="http://www.w3.org/2000/svg">
<g clip-path="url(#clip0_2_1593)">
<path fill-rule="evenodd" clip-rule="evenodd" d="M978.332 50.2412V40.6591H974.47V38.2505H984.79V40.6591H980.98V50.2412H978.332Z" fill="#3A4552"/>
<path fill-rule="evenodd" clip-rule="evenodd" d="M986.814 50.2412V38.2505H991.834C992.952 38.2505 993.915 38.6291 994.705 39.4034C995.513 40.16 995.909 41.089 995.909 42.2074C995.909 43.7385 995.066 45.063 993.777 45.6137L996.7 50.2412H993.708L991.215 46.2501H991.181H989.444V50.2412H986.814ZM989.444 43.9101H991.542C992.574 43.9101 993.261 43.2566 993.261 42.2413C993.261 41.33 992.608 40.6591 991.765 40.6591H989.444V43.9101Z" fill="#070101"/>
<path fill-rule="evenodd" clip-rule="evenodd" d="M997.717 38.2506H1000.37V45.1144C1000.37 47.0584 1001.19 48.0217 1002.82 48.0217C1004.46 48.0217 1005.27 47.0584 1005.27 45.1144V38.2506H1007.91V45.39C1007.91 47.0071 1007.43 48.2456 1006.47 49.1229C1005.51 50.0003 1004.29 50.4303 1002.82 50.4303C1001.34 50.4303 1000.12 50.0003 999.162 49.1401C998.199 48.2627 997.717 47.0242 997.717 45.39V38.2506Z" fill="#070101"/>
<path fill-rule="evenodd" clip-rule="evenodd" d="M1010.14 50.2412V37.8206L1016.47 44.719L1022.79 37.8206V50.2412H1020.25V44.1511L1016.47 48.4003L1012.69 44.1511V50.2412H1010.14Z" fill="#070101"/>
<path fill-rule="evenodd" clip-rule="evenodd" d="M1024.41 50.2412L1030.65 37.5625L1036.89 50.2412H1034.07L1033.15 48.3317H1028.14L1027.21 50.2412H1024.41ZM1029.12 46.0777H1032.17L1030.64 42.9297L1029.12 46.0777Z" fill="#070101"/>
<mask id="mask0_2_1593" style="mask-type:alpha" maskUnits="userSpaceOnUse" x="1038" y="37" width="11" height="14">
<path d="M1038.18 37.7863H1048.84V50.7057H1038.18V37.7863Z" fill="white"/>
</mask>
<g mask="url(#mask0_2_1593)">
<path fill-rule="evenodd" clip-rule="evenodd" d="M1038.18 50.2412V37.7863L1046.23 45.063V38.2505H1048.84V50.7057L1040.79 43.4459V50.2412H1038.18Z" fill="#070101"/>
</g>
<path fill-rule="evenodd" clip-rule="evenodd" d="M978.319 55.3275C978.594 55.5685 978.928 55.6889 979.328 55.6889C979.658 55.6889 979.851 55.5685 979.851 55.3919C979.851 55.2929 979.803 55.2157 979.713 55.1597C979.623 55.1036 979.443 55.0264 979.182 54.9318C978.671 54.7466 978.374 54.4841 978.374 54.0367C978.374 53.7743 978.478 53.5719 978.679 53.4215C978.885 53.2708 979.138 53.1933 979.443 53.1933C979.748 53.1933 980.014 53.2621 980.246 53.3957V54.0538C980.04 53.886 979.782 53.8001 979.469 53.8001C979.194 53.8001 979.039 53.8947 979.039 54.0324C979.039 54.1186 979.078 54.183 979.194 54.2518L979.34 54.325L979.537 54.4022L979.727 54.4757C980.014 54.5918 980.215 54.7166 980.332 54.8496C980.452 54.9829 980.512 55.164 980.512 55.3919C980.512 55.9212 980.108 56.287 979.357 56.287C978.976 56.287 978.628 56.1967 978.319 56.0158V55.3275Z" fill="#070101"/>
<path fill-rule="evenodd" clip-rule="evenodd" d="M983.482 56.2396V53.8429H982.671V53.2408H984.941V53.8429H984.142V56.2396H983.482Z" fill="#070101"/>
<path fill-rule="evenodd" clip-rule="evenodd" d="M986.773 56.2396L988.331 53.0687L989.889 56.2396H989.185L988.953 55.762H987.705L987.473 56.2396H986.773ZM987.949 55.1985H988.708L988.327 54.4111L987.949 55.1985Z" fill="#070101"/>
<path fill-rule="evenodd" clip-rule="evenodd" d="M992.533 56.2396V53.8429H991.722V53.2408H993.992V53.8429H993.194V56.2396H992.533Z" fill="#070101"/>
<path fill-rule="evenodd" clip-rule="evenodd" d="M996.447 56.2396V53.2408H998.489V53.8429H997.108V54.407H998.399V54.9961H997.108V55.6371H998.52V56.2396H996.447Z" fill="#070101"/>
<path fill-rule="evenodd" clip-rule="evenodd" d="M1004.93 53.2408H1005.59V54.9575C1005.59 55.4438 1005.79 55.6848 1006.2 55.6848C1006.61 55.6848 1006.81 55.4438 1006.81 54.9575V53.2408H1007.47V55.026C1007.47 55.4307 1007.35 55.7402 1007.11 55.96C1006.87 56.1795 1006.57 56.2872 1006.2 56.2872C1005.83 56.2872 1005.53 56.1795 1005.29 55.9643C1005.05 55.7448 1004.93 55.4351 1004.93 55.026V53.2408Z" fill="#070101"/>
<path fill-rule="evenodd" clip-rule="evenodd" d="M1010.13 56.2396V53.1247L1012.14 54.9444V53.2408H1012.79V56.3557L1010.79 54.54V56.2396H1010.13Z" fill="#070101"/>
<path fill-rule="evenodd" clip-rule="evenodd" d="M1015.5 56.2392H1016.16V53.2404H1015.5V56.2392Z" fill="#070101"/>
<path fill-rule="evenodd" clip-rule="evenodd" d="M1020.17 56.3859L1018.63 53.2408H1019.34L1020.17 55.0007L1021.01 53.2408H1021.71L1020.17 56.3859Z" fill="#070101"/>
<path fill-rule="evenodd" clip-rule="evenodd" d="M1024.16 56.2396V53.2408H1026.21V53.8429H1024.82V54.407H1026.12V54.9961H1024.82V55.6371H1026.24V56.2396H1024.16Z" fill="#070101"/>
<path fill-rule="evenodd" clip-rule="evenodd" d="M1028.83 56.2396V53.2408H1030.08C1030.36 53.2408 1030.6 53.3355 1030.8 53.5288C1031 53.7184 1031.1 53.9507 1031.1 54.2302C1031.1 54.6132 1030.89 54.9444 1030.57 55.082L1031.3 56.2396H1030.55L1029.93 55.2414H1029.92H1029.49V56.2396H1028.83ZM1029.49 54.6561H1030.01C1030.27 54.6561 1030.44 54.4927 1030.44 54.2389C1030.44 54.0107 1030.28 53.8429 1030.07 53.8429H1029.49V54.6561Z" fill="#070101"/>
<path fill-rule="evenodd" clip-rule="evenodd" d="M1033.63 55.3275C1033.9 55.5685 1034.24 55.6889 1034.63 55.6889C1034.96 55.6889 1035.16 55.5685 1035.16 55.3919C1035.16 55.2929 1035.11 55.2157 1035.02 55.1597C1034.93 55.1036 1034.75 55.0264 1034.49 54.9318C1033.98 54.7466 1033.68 54.4841 1033.68 54.0367C1033.68 53.7743 1033.78 53.5719 1033.99 53.4215C1034.19 53.2708 1034.45 53.1933 1034.75 53.1933C1035.05 53.1933 1035.32 53.2621 1035.55 53.3957V54.0538C1035.35 53.886 1035.09 53.8001 1034.78 53.8001C1034.5 53.8001 1034.35 53.8947 1034.35 54.0324C1034.35 54.1186 1034.39 54.183 1034.5 54.2518L1034.65 54.325L1034.84 54.4022L1035.03 54.4757C1035.32 54.5918 1035.52 54.7166 1035.64 54.8496C1035.76 54.9829 1035.82 55.164 1035.82 55.3919C1035.82 55.9212 1035.42 56.287 1034.66 56.287C1034.28 56.287 1033.93 56.1967 1033.63 56.0158V55.3275Z" fill="#070101"/>
<path fill-rule="evenodd" clip-rule="evenodd" d="M1038.35 56.2392H1039.01V53.2404H1038.35V56.2392Z" fill="#070101"/>
<path fill-rule="evenodd" clip-rule="evenodd" d="M1042.3 56.2396V53.8429H1041.49V53.2408H1043.76V53.8429H1042.96V56.2396H1042.3Z" fill="#070101"/>
<path fill-rule="evenodd" clip-rule="evenodd" d="M1047.07 56.2396V55.1209L1045.97 53.2408H1046.69L1047.4 54.4883L1048.11 53.2408H1048.83L1047.73 55.1209V56.2396H1047.07Z" fill="#070101"/>
<path fill-rule="evenodd" clip-rule="evenodd" d="M986.814 50.2412V38.2505H991.834C992.952 38.2505 993.915 38.6291 994.705 39.4034C995.513 40.16 995.909 41.089 995.909 42.2074C995.909 43.7385 995.066 45.063 993.777 45.6137L996.7 50.2412H993.708L991.215 46.2501H991.181H989.444V50.2412H986.814ZM989.444 43.9101H991.542C992.574 43.9101 993.261 43.2566 993.261 42.2413C993.261 41.33 992.608 40.6591 991.765 40.6591H989.444V43.9101Z" fill="#3A4552"/>
<path fill-rule="evenodd" clip-rule="evenodd" d="M997.717 38.2506H1000.37V45.1144C1000.37 47.0584 1001.19 48.0217 1002.82 48.0217C1004.46 48.0217 1005.27 47.0584 1005.27 45.1144V38.2506H1007.91V45.39C1007.91 47.0071 1007.43 48.2456 1006.47 49.1229C1005.51 50.0003 1004.29 50.4303 1002.82 50.4303C1001.34 50.4303 1000.12 50.0003 999.162 49.1401C998.199 48.2627 997.717 47.0242 997.717 45.39V38.2506Z" fill="#3A4552"/>
<path fill-rule="evenodd" clip-rule="evenodd" d="M1010.14 50.2412V37.8206L1016.47 44.719L1022.79 37.8206V50.2412H1020.25V44.1511L1016.47 48.4003L1012.69 44.1511V50.2412H1010.14Z" fill="#3A4552"/>
<path fill-rule="evenodd" clip-rule="evenodd" d="M1024.41 50.2412L1030.65 37.5625L1036.89 50.2412H1034.07L1033.15 48.3317H1028.14L1027.21 50.2412H1024.41ZM1029.12 46.0777H1032.17L1030.64 42.9297L1029.12 46.0777Z" fill="#3A4552"/>
<path fill-rule="evenodd" clip-rule="evenodd" d="M1038.18 50.2412V37.7863L1046.23 45.063V38.2505H1048.84V50.7057L1040.79 43.4459V50.2412H1038.18Z" fill="#3A4552"/>
<path fill-rule="evenodd" clip-rule="evenodd" d="M978.319 55.3275C978.594 55.5685 978.928 55.6889 979.328 55.6889C979.658 55.6889 979.851 55.5685 979.851 55.3919C979.851 55.2929 979.803 55.2157 979.713 55.1597C979.623 55.1036 979.443 55.0264 979.182 54.9318C978.671 54.7466 978.374 54.4841 978.374 54.0367C978.374 53.7743 978.478 53.5719 978.679 53.4215C978.885 53.2708 979.138 53.1933 979.443 53.1933C979.748 53.1933 980.014 53.2621 980.246 53.3957V54.0538C980.04 53.886 979.782 53.8001 979.469 53.8001C979.194 53.8001 979.039 53.8947 979.039 54.0324C979.039 54.1186 979.078 54.183 979.194 54.2518L979.34 54.325L979.537 54.4022L979.727 54.4757C980.014 54.5918 980.215 54.7166 980.332 54.8496C980.452 54.9829 980.512 55.164 980.512 55.3919C980.512 55.9212 980.108 56.287 979.357 56.287C978.976 56.287 978.628 56.1967 978.319 56.0158V55.3275Z" fill="#3A4552"/>
<path fill-rule="evenodd" clip-rule="evenodd" d="M983.482 56.2396V53.8429H982.671V53.2408H984.941V53.8429H984.142V56.2396H983.482Z" fill="#3A4552"/>
<path fill-rule="evenodd" clip-rule="evenodd" d="M986.773 56.2396L988.331 53.0687L989.889 56.2396H989.185L988.953 55.762H987.705L987.473 56.2396H986.773ZM987.949 55.1985H988.708L988.327 54.4111L987.949 55.1985Z" fill="#3A4552"/>
<path fill-rule="evenodd" clip-rule="evenodd" d="M992.533 56.2396V53.8429H991.722V53.2408H993.992V53.8429H993.194V56.2396H992.533Z" fill="#3A4552"/>
<path fill-rule="evenodd" clip-rule="evenodd" d="M996.447 56.2396V53.2408H998.489V53.8429H997.108V54.407H998.399V54.9961H997.108V55.6371H998.52V56.2396H996.447Z" fill="#3A4552"/>
<path fill-rule="evenodd" clip-rule="evenodd" d="M1004.93 53.2408H1005.59V54.9575C1005.59 55.4438 1005.79 55.6848 1006.2 55.6848C1006.61 55.6848 1006.81 55.4438 1006.81 54.9575V53.2408H1007.47V55.026C1007.47 55.4307 1007.35 55.7402 1007.11 55.96C1006.87 56.1795 1006.57 56.2872 1006.2 56.2872C1005.83 56.2872 1005.53 56.1795 1005.29 55.9643C1005.05 55.7448 1004.93 55.4351 1004.93 55.026V53.2408Z" fill="#3A4552"/>
<path fill-rule="evenodd" clip-rule="evenodd" d="M1010.13 56.2396V53.1247L1012.14 54.9444V53.2408H1012.79V56.3557L1010.79 54.54V56.2396H1010.13Z" fill="#3A4552"/>
<path fill-rule="evenodd" clip-rule="evenodd" d="M1015.5 56.2392H1016.16V53.2404H1015.5V56.2392Z" fill="#3A4552"/>
<path fill-rule="evenodd" clip-rule="evenodd" d="M1020.17 56.3859L1018.63 53.2408H1019.34L1020.17 55.0007L1021.01 53.2408H1021.71L1020.17 56.3859Z" fill="#3A4552"/>
<path fill-rule="evenodd" clip-rule="evenodd" d="M1024.16 56.2396V53.2408H1026.21V53.8429H1024.82V54.407H1026.12V54.9961H1024.82V55.6371H1026.24V56.2396H1024.16Z" fill="#3A4552"/>
<path fill-rule="evenodd" clip-rule="evenodd" d="M1028.83 56.2396V53.2408H1030.08C1030.36 53.2408 1030.6 53.3355 1030.8 53.5288C1031 53.7184 1031.1 53.9507 1031.1 54.2302C1031.1 54.6132 1030.89 54.9444 1030.57 55.082L1031.3 56.2396H1030.55L1029.93 55.2414H1029.92H1029.49V56.2396H1028.83ZM1029.49 54.6561H1030.01C1030.27 54.6561 1030.44 54.4927 1030.44 54.2389C1030.44 54.0107 1030.28 53.8429 1030.07 53.8429H1029.49V54.6561Z" fill="#3A4552"/>
<path fill-rule="evenodd" clip-rule="evenodd" d="M1033.63 55.3275C1033.9 55.5685 1034.24 55.6889 1034.63 55.6889C1034.96 55.6889 1035.16 55.5685 1035.16 55.3919C1035.16 55.2929 1035.11 55.2157 1035.02 55.1597C1034.93 55.1036 1034.75 55.0264 1034.49 54.9318C1033.98 54.7466 1033.68 54.4841 1033.68 54.0367C1033.68 53.7743 1033.78 53.5719 1033.99 53.4215C1034.19 53.2708 1034.45 53.1933 1034.75 53.1933C1035.05 53.1933 1035.32 53.2621 1035.55 53.3957V54.0538C1035.35 53.886 1035.09 53.8001 1034.78 53.8001C1034.5 53.8001 1034.35 53.8947 1034.35 54.0324C1034.35 54.1186 1034.39 54.183 1034.5 54.2518L1034.65 54.325L1034.84 54.4022L1035.03 54.4757C1035.32 54.5918 1035.52 54.7166 1035.64 54.8496C1035.76 54.9829 1035.82 55.164 1035.82 55.3919C1035.82 55.9212 1035.42 56.287 1034.66 56.287C1034.28 56.287 1033.93 56.1967 1033.63 56.0158V55.3275Z" fill="#3A4552"/>
<path fill-rule="evenodd" clip-rule="evenodd" d="M1038.35 56.2392H1039.01V53.2404H1038.35V56.2392Z" fill="#3A4552"/>
<path fill-rule="evenodd" clip-rule="evenodd" d="M1042.3 56.2396V53.8429H1041.49V53.2408H1043.76V53.8429H1042.96V56.2396H1042.3Z" fill="#3A4552"/>
<path fill-rule="evenodd" clip-rule="evenodd" d="M1047.07 56.2396V55.1209L1045.97 53.2408H1046.69L1047.4 54.4883L1048.11 53.2408H1048.83L1047.73 55.1209V56.2396H1047.07Z" fill="#3A4552"/>
<path fill-rule="evenodd" clip-rule="evenodd" d="M937 28.9997V38.2343L957.388 28.9997H937Z" fill="#3A4552"/>
<path fill-rule="evenodd" clip-rule="evenodd" d="M940.184 38.738H968.476V30.7033L940.184 38.738Z" fill="#3A4552"/>
<path fill-rule="evenodd" clip-rule="evenodd" d="M948.323 64.9487H957.154V46.625L948.323 41.1626V64.9487Z" fill="#3A4552"/>
</g>
<g clip-path="url(#clip1_2_1593)">
<path d="M861.932 23.1534C862.642 23.1494 863.35 22.9919 864.055 23.1388C867.176 23.4098 870.254 24.2497 873.031 25.681C876.622 27.4822 879.712 30.2208 881.954 33.5028C884.241 36.8409 885.595 40.7718 885.9 44.7775C885.85 45.8376 885.818 46.9045 885.923 47.962C885.7 51.0076 884.921 54.0279 883.533 56.7705C881.95 59.9576 879.606 62.7776 876.752 64.9567C873.195 67.6873 868.832 69.395 864.329 69.7997C863.643 69.8478 862.958 69.972 862.269 69.9199C861.812 69.8904 861.344 70.0334 860.905 69.8503C862.587 65.2186 864.266 60.5852 865.963 55.9573C867.809 55.9239 869.657 55.9693 871.503 55.9359C872.681 55.8959 873.846 55.1934 874.233 54.072C875.795 49.7672 877.396 45.4744 878.908 41.151C879.156 40.498 879.294 39.7703 879.096 39.0867C878.829 38.2201 878.019 37.6073 877.149 37.3776C876.393 37.148 875.595 37.2321 874.818 37.2187C872.448 37.2121 870.078 37.2307 867.71 37.208C867.671 37.2855 867.594 37.439 867.556 37.5151C863.718 48.0688 859.888 58.6252 856.036 69.1734C852.078 68.168 848.391 66.1544 845.451 63.3718C841.91 60.0536 839.451 55.6409 838.541 50.9235C838.256 49.5068 838.153 48.0648 838.074 46.6267C838.138 43.6318 838.64 40.6236 839.792 37.8383C842.602 30.803 849.106 25.2631 856.666 23.6795C852.796 34.1864 849.016 44.7254 845.147 55.2336C845.394 55.3071 845.653 55.279 845.906 55.2815C847.316 55.2749 848.728 55.2844 850.138 55.2789C850.33 55.2775 850.31 55.0158 850.39 54.8957C852.089 50.1983 853.809 45.5077 855.513 40.813C855.616 40.5219 855.711 40.2282 855.847 39.9518C856.731 39.9665 857.615 39.9478 858.498 39.9611C856.645 45.0497 854.808 50.1463 852.928 55.2253C853.124 55.3028 853.338 55.2787 853.544 55.2829C855.025 55.2694 856.506 55.2921 857.987 55.2722C859.66 50.6483 861.354 46.0324 863.031 41.4112C863.39 40.4659 863.421 39.3483 862.851 38.4764C862.353 37.7046 861.408 37.3361 860.507 37.3C859.274 37.264 858.04 37.3027 856.806 37.2813C858.502 32.5681 860.249 27.8721 861.932 23.1534Z" fill="#3A4552"/>
<path d="M871.757 40.0122C871.904 39.8493 872.166 39.9481 872.362 39.92C873.047 39.9321 873.731 39.9147 874.416 39.9294C872.822 44.385 871.153 48.8153 869.584 53.2803C868.698 53.3417 867.805 53.3043 866.917 53.299C868.536 48.8727 870.138 44.4398 871.757 40.0122Z" fill="#3A4552"/>
</g>
<g clip-path="url(#clip2_2_1593)">
<path d="M737.286 23L741.672 54.5453H734.711L731.627 32.5204L731.542 32.4636L726.308 42.4956H731.938L732.787 48.3499H723.252L719.998 54.5453H712.245L715.301 48.3499H711L713.999 42.4956H718.385L728.628 23H737.286ZM786.972 30.3037L782.756 54.5453H775.795L770.532 42.3535C769.74 46.389 769.089 50.5098 768.382 54.5453H761.365C761.62 52.698 761.987 50.794 762.157 48.9467C759.894 52.9538 755.847 55.3126 751.32 55.2274C748.01 55.1989 743.992 53.0959 742.153 50.3961L740.342 37.7211C741.955 33.4583 746.34 30.1616 750.839 29.7922C755.423 29.5364 759.328 31.4689 761.987 35.3055C762.921 36.698 763.459 38.2611 763.798 39.9094L765.524 30.3037H772.343L777.719 42.5524C778.455 38.4885 779.191 34.3961 779.87 30.3037H786.972ZM755.649 38.0906C754.291 36.3854 752.112 35.8455 750.103 36.4991C748.434 36.9538 747.104 38.8011 746.538 40.3073C745.548 42.9503 746.68 46.5879 748.491 47.6963C749.736 48.4636 751.15 48.8615 752.622 48.4352C754.093 47.952 755.564 46.7584 756.215 45.2522C757.206 43.1492 757.375 39.9378 755.649 38.0906Z" fill="#3A4552"/>
<path d="M712.245 68.7549V62.4458H715.669V63.3268H713.49V65.0319H715.64V65.8845H713.49V67.9023H716.036V68.7549H712.245Z" fill="#3A4552"/>
<path d="M722.771 68.7549V66.1971C722.771 65.7424 722.742 65.5151 722.629 65.3161C722.516 65.0888 722.29 64.9467 722.007 64.9467C721.667 64.9467 721.384 65.1456 721.214 65.4867C721.13 65.6288 721.101 65.8277 721.101 66.2256V68.7549H719.885V66.2256C719.885 65.7709 719.856 65.5435 719.771 65.373C719.658 65.1456 719.46 64.9751 719.149 64.9751C718.724 64.9751 718.442 65.2025 718.328 65.5719C718.272 65.7709 718.243 66.0266 718.243 66.3392V68.7833H717.055V64.2931H718.243V64.9467C718.555 64.4636 719.036 64.1794 719.658 64.1794C720.281 64.1794 720.733 64.4352 720.96 65.0035C721.299 64.4636 721.837 64.1794 722.431 64.1794C723.082 64.1794 723.563 64.4636 723.789 64.9183C723.931 65.2025 723.987 65.4298 723.987 66.1403V68.7833H722.771V68.7549Z" fill="#3A4552"/>
<path d="M726.449 68.0728V71H725.261V64.2646H726.449V64.9751C726.845 64.4351 727.298 64.1509 727.977 64.1509C729.109 64.1509 729.958 65.0604 729.958 66.3961C729.958 67.7602 729.052 68.8401 727.835 68.8401C727.298 68.8685 726.817 68.6128 726.449 68.0728ZM728.713 66.4529C728.713 65.4298 728.203 64.8614 727.609 64.8614C727.043 64.8614 726.449 65.3445 726.449 66.5381C726.449 67.476 726.845 68.158 727.552 68.158C728.316 68.158 728.713 67.3339 728.713 66.4529Z" fill="#3A4552"/>
<path d="M730.665 66.453C730.665 65.0604 731.684 64.1226 733.042 64.1226C734.372 64.1226 735.39 65.0604 735.39 66.453C735.39 67.9308 734.287 68.8402 733.013 68.8402C731.768 68.8686 730.665 67.9592 730.665 66.453ZM734.173 66.4814C734.173 65.373 733.692 64.7762 733.042 64.7762C732.391 64.7762 731.91 65.4015 731.91 66.4814C731.91 67.5897 732.419 68.2434 733.013 68.2434C733.664 68.2434 734.173 67.6182 734.173 66.4814Z" fill="#3A4552"/>
<path d="M741.247 68.7549H740.398L739.267 65.7424L738.135 68.7549H737.314L735.73 64.3783L736.918 64.1794L737.88 67.3339L739.04 64.2646H739.832L740.936 67.3339L741.955 64.1794L742.973 64.3215L741.247 68.7549Z" fill="#3A4552"/>
<path d="M747.472 68.3286C746.906 68.698 746.312 68.8685 745.69 68.8685C745.067 68.8685 744.558 68.698 744.133 68.357C743.567 67.9307 743.284 67.2202 743.284 66.4245C743.284 65.714 743.567 65.0604 744.077 64.6341C744.473 64.3215 744.954 64.1509 745.548 64.1509C746.227 64.1509 746.708 64.3783 747.048 64.8046C747.359 65.174 747.5 65.714 747.5 66.2824C747.5 66.3676 747.5 66.4813 747.5 66.595H744.529C744.558 67.5044 745.039 68.0728 745.916 68.0728C746.312 68.0728 746.736 67.9023 747.104 67.6749L747.472 68.3286ZM746.453 65.8845C746.453 65.2309 746.142 64.7477 745.548 64.7477C744.982 64.7477 744.586 65.174 744.558 65.9982H746.453V65.8845Z" fill="#3A4552"/>
<path d="M751.235 65.4014C751.037 65.2593 750.811 65.2309 750.669 65.2309C750.302 65.2309 750.019 65.4582 749.877 65.9129C749.792 66.1403 749.764 66.4245 749.764 66.936V68.7548H748.576V64.2646H749.764V65.1456C749.792 65.0604 749.821 64.9751 749.849 64.9183C750.047 64.492 750.33 64.1509 750.783 64.1509C751.037 64.1509 751.32 64.2646 751.631 64.5204L751.235 65.4014Z" fill="#3A4552"/>
<path d="M757.658 68.8686L756.385 66.1687H755.564V68.7549H754.291V62.4742H756.074C756.979 62.4742 757.46 62.5879 757.856 62.8437C758.281 63.1279 758.535 63.6394 758.535 64.2078C758.535 65.0036 758.083 65.6004 757.432 65.9414L758.932 68.6412L757.658 68.8686ZM757.007 63.5258C756.781 63.3552 756.498 63.27 755.989 63.27H755.564V65.4298H756.102C756.64 65.4298 756.866 65.3162 757.064 65.0888C757.262 64.833 757.347 64.492 757.347 64.2931C757.319 63.952 757.206 63.6679 757.007 63.5258Z" fill="#3A4552"/>
<path d="M763.572 68.3286C763.006 68.698 762.412 68.8685 761.789 68.8685C761.167 68.8685 760.657 68.698 760.233 68.357C759.667 67.9307 759.384 67.2202 759.384 66.4245C759.384 65.714 759.667 65.0604 760.176 64.6341C760.573 64.3215 761.054 64.1509 761.648 64.1509C762.327 64.1509 762.808 64.3783 763.147 64.8046C763.459 65.174 763.6 65.714 763.6 66.2824C763.6 66.3676 763.6 66.4813 763.6 66.595H760.629C760.657 67.5044 761.139 68.0728 762.016 68.0728C762.412 68.0728 762.836 67.9023 763.204 67.6749L763.572 68.3286ZM762.553 65.8845C762.553 65.2309 762.242 64.7477 761.648 64.7477C761.082 64.7477 760.686 65.174 760.657 65.9982H762.553V65.8845Z" fill="#3A4552"/>
<path d="M764.307 68.357L764.647 67.7034C764.93 67.9592 765.298 68.1581 765.609 68.1581C766.033 68.1581 766.26 67.9308 766.26 67.5897C766.26 67.3055 766.09 67.1066 765.524 66.6803C765.015 66.3109 764.562 65.9414 764.562 65.3446C764.562 64.6057 765.185 64.1226 766.09 64.1226C766.571 64.1226 767.024 64.2647 767.392 64.492L767.08 65.0604C766.854 64.8899 766.599 64.8047 766.345 64.8047C765.949 64.8047 765.751 65.0604 765.751 65.2594C765.751 65.5151 765.949 65.7141 766.401 66.0551C767.278 66.6803 767.477 66.9645 767.477 67.5045C767.477 68.3002 766.769 68.8118 765.807 68.8118C765.213 68.8686 764.704 68.6697 764.307 68.357Z" fill="#3A4552"/>
<path d="M771.381 68.7549V68.1013C770.985 68.6412 770.561 68.8686 769.938 68.8686C769.287 68.8686 768.722 68.556 768.523 68.016C768.41 67.7318 768.382 67.5045 768.382 66.794V64.2647H769.57V66.8224C769.57 67.2203 769.599 67.4761 769.684 67.6466C769.797 67.8739 770.051 68.0444 770.419 68.0444C770.815 68.0444 771.098 67.8455 771.24 67.5045C771.325 67.2771 771.353 67.0213 771.353 66.6803V64.2647H772.57V68.7549H771.381Z" fill="#3A4552"/>
<path d="M775.06 62.1616H773.871V68.7549H775.06V62.1616Z" fill="#3A4552"/>
<path d="M779.106 68.5844C778.71 68.7549 778.342 68.8686 777.917 68.8686C777.351 68.8686 776.984 68.698 776.757 68.357C776.587 68.0728 776.531 67.8455 776.531 67.2203V64.8899H775.908V64.2647H776.531V63.1847L777.719 62.929V64.2647H778.879V64.8899H777.719V66.9076C777.719 67.7034 777.861 68.1581 778.342 68.1581C778.512 68.1581 778.681 68.1297 778.879 68.016L779.106 68.5844Z" fill="#3A4552"/>
<path d="M779.615 68.357L779.955 67.7034C780.238 67.9592 780.605 68.1581 780.917 68.1581C781.341 68.1581 781.567 67.9308 781.567 67.5897C781.567 67.3055 781.398 67.1066 780.803 66.6803C780.294 66.3109 779.841 65.9414 779.841 65.3446C779.841 64.6057 780.464 64.1226 781.369 64.1226C781.85 64.1226 782.303 64.2647 782.671 64.492L782.36 65.0604C782.133 64.8899 781.879 64.8047 781.624 64.8047C781.228 64.8047 781.03 65.0604 781.03 65.2594C781.03 65.5151 781.228 65.7141 781.681 66.0551C782.558 66.6803 782.756 66.9645 782.756 67.5045C782.756 68.3002 782.048 68.8118 781.086 68.8118C780.52 68.8686 780.011 68.6697 779.615 68.357Z" fill="#3A4552"/>
<path d="M783.605 64.1794C783.605 63.2131 784.369 62.4742 785.331 62.4742C786.264 62.4742 787 63.2416 787 64.1794C787 65.1172 786.264 65.8845 785.302 65.8845C784.34 65.8845 783.605 65.1172 783.605 64.1794ZM786.604 64.1794C786.604 63.4121 786.01 62.7869 785.302 62.7869C784.595 62.7869 784.029 63.4121 784.029 64.151C784.029 64.9183 784.623 65.5151 785.331 65.5151C786.01 65.5435 786.604 64.9467 786.604 64.1794ZM785.614 65.0888L785.302 64.3215H785.104V65.032H784.708V63.2416H785.274C785.444 63.2416 785.614 63.27 785.755 63.3552C785.897 63.4405 785.981 63.5542 785.981 63.7531C785.981 63.9805 785.868 64.151 785.67 64.2647L786.066 65.0036L785.614 65.0888ZM785.217 64.0373C785.387 64.0373 785.5 63.952 785.5 63.7815C785.5 63.5826 785.359 63.5258 785.217 63.5258H785.076V64.0089H785.217V64.0373Z" fill="#3A4552"/>
</g>
<path d="M553.12 35.0693H574.124L580.16 29.0739C579.852 29.0243 579.54 28.9996 579.227 29H552.918C551.348 29 549.843 29.6182 548.733 30.7187C547.623 31.8193 547 33.3119 547 34.8682V60.9586C547 61.2686 547.025 61.5781 547.075 61.8842L553.12 55.8983V35.0693Z" fill="#3A4552"/>
<path d="M578.2 59.9402H557.187L551.15 65.926C551.459 65.9747 551.771 65.9995 552.084 66H578.393C579.963 66 581.468 65.3817 582.578 64.2812C583.687 63.1807 584.311 61.6881 584.311 60.1317V34.0414C584.31 33.7314 584.285 33.4219 584.236 33.1158L578.2 39.1017V59.9402Z" fill="#4B5561"/>
<path d="M563.016 54.1553H572.275V44.9755" fill="#4B5561"/>
<path d="M568.109 40.9357H558.85V50.1155" fill="#3A4552"/>
<path d="M606.994 57.501V61.2431H591.902V58.2844L600.397 48.2814H592.118V44.5393H606.632V47.5L598.135 57.501H606.994Z" fill="#3A4552"/>
<path d="M622.616 57.5978V61.2431H609.088V44.5393H622.302V48.1923H613.806V51.0012H621.292V54.5347H613.806V57.5902L622.616 57.5978Z" fill="#3A4552"/>
<path d="M632.63 56.8088H630.029V61.2431H625.263V44.5393H632.967C634.497 44.5393 635.82 44.7922 636.937 45.298C637.998 45.7462 638.902 46.4934 639.538 47.4469C640.162 48.4277 640.48 49.569 640.453 50.7281C640.479 51.842 640.182 52.9401 639.598 53.8917C639.003 54.812 638.156 55.545 637.155 56.0046L640.789 61.2545H635.686L632.63 56.8088ZM634.893 48.9149C634.393 48.4837 633.655 48.2688 632.678 48.27H630.029V53.1634H632.684C633.66 53.1634 634.399 52.9522 634.899 52.5299C635.398 52.1076 635.647 51.507 635.644 50.7281C635.641 49.9454 635.39 49.341 634.893 48.9149Z" fill="#3A4552"/>
<path d="M646.772 60.4617C645.377 59.74 644.209 58.6531 643.393 57.3191C642.578 55.9851 642.147 54.455 642.147 52.895C642.147 51.335 642.578 49.8049 643.393 48.4709C644.209 47.1369 645.377 46.05 646.772 45.3283C648.263 44.5899 649.907 44.2054 651.573 44.2054C653.24 44.2054 654.884 44.5899 656.375 45.3283C657.77 46.05 658.938 47.1369 659.753 48.4709C660.569 49.8049 661 51.335 661 52.895C661 54.455 660.569 55.9851 659.753 57.3191C658.938 58.6531 657.77 59.74 656.375 60.4617C654.884 61.2001 653.24 61.5846 651.573 61.5846C649.907 61.5846 648.263 61.2001 646.772 60.4617ZM653.885 57.0705C654.576 56.6706 655.142 56.0882 655.52 55.3882C655.917 54.6153 656.124 53.7603 656.124 52.8931C656.124 52.0259 655.917 51.1709 655.52 50.3981C655.142 49.6983 654.576 49.1161 653.885 48.7157C653.178 48.324 652.383 48.1184 651.573 48.1184C650.764 48.1184 649.968 48.324 649.262 48.7157C648.57 49.116 648.004 49.6983 647.625 50.3981C647.23 51.1715 647.024 52.0262 647.024 52.8931C647.024 53.76 647.23 54.6147 647.625 55.3882C648.003 56.0884 648.57 56.6707 649.262 57.0705C649.968 57.4622 650.764 57.6679 651.573 57.6679C652.383 57.6679 653.178 57.4622 653.885 57.0705Z" fill="#3A4552"/>
<path d="M597.502 39.1888H594.623L594.088 40.5013H592.126L595.13 33.753H597.026L600.04 40.5013H598.037L597.502 39.1888ZM596.938 37.7815L596.064 35.6231L595.197 37.7815H596.938Z" fill="#4B5561"/>
<path d="M602.002 40.4331C601.552 40.3284 601.125 40.1453 600.74 39.8926L601.371 38.4852C601.699 38.6955 602.056 38.8577 602.431 38.967C602.814 39.0891 603.214 39.153 603.616 39.1567C604.355 39.1567 604.726 38.967 604.726 38.6066C604.724 38.5113 604.693 38.4187 604.636 38.3418C604.579 38.2649 604.5 38.2076 604.408 38.178C604.079 38.0494 603.739 37.951 603.393 37.884C602.957 37.7964 602.529 37.6799 602.109 37.535C601.768 37.4106 601.464 37.2032 601.226 36.9319C600.966 36.6176 600.834 36.2185 600.856 35.8128C600.85 35.413 600.968 35.0209 601.195 34.69C601.452 34.3373 601.805 34.0648 602.212 33.9048C602.739 33.698 603.303 33.5999 603.869 33.6165C604.314 33.6163 604.757 33.6659 605.19 33.7645C605.593 33.8526 605.98 34.0009 606.338 34.2045L605.745 35.6213C605.17 35.2937 604.522 35.1143 603.859 35.0997C603.57 35.0791 603.281 35.1375 603.023 35.2685C602.945 35.3124 602.879 35.3759 602.833 35.4528C602.787 35.5297 602.763 35.6172 602.761 35.7066C602.763 35.798 602.794 35.8864 602.85 35.9593C602.906 36.0322 602.983 36.0858 603.071 36.1125C603.396 36.2381 603.731 36.3333 604.073 36.397C604.51 36.4843 604.94 36.6021 605.361 36.7498C605.7 36.8742 606.004 37.0786 606.246 37.3453C606.511 37.6549 606.648 38.0529 606.629 38.4587C606.633 38.85 606.514 39.2329 606.29 39.5549C606.031 39.9074 605.677 40.1802 605.269 40.3421C604.743 40.5515 604.179 40.6516 603.612 40.636C603.069 40.6374 602.528 40.5692 602.002 40.4331Z" fill="#4B5561"/>
<path d="M612.852 34.0564C613.285 34.2357 613.653 34.5415 613.907 34.9332C614.16 35.3249 614.287 35.7838 614.271 36.249C614.288 36.7129 614.16 37.1707 613.907 37.5609C613.653 37.9511 613.285 38.2551 612.852 38.432C612.345 38.6449 611.798 38.7484 611.248 38.7355H610.062V40.5013H608.138V33.753H611.248C611.798 33.7401 612.345 33.8435 612.852 34.0564ZM612.028 36.9773C612.13 36.886 612.21 36.7732 612.262 36.6471C612.314 36.521 612.337 36.3849 612.328 36.249C612.336 36.1124 612.314 35.9758 612.262 35.8491C612.21 35.7225 612.13 35.6089 612.028 35.5169C611.77 35.3259 611.452 35.2343 611.131 35.2589H610.062V37.2333H611.131C611.451 37.2575 611.77 37.1666 612.028 36.9773Z" fill="#4B5561"/>
<path d="M615.583 40.2794C615.478 40.1785 615.395 40.0569 615.339 39.9223C615.284 39.7877 615.258 39.6432 615.262 39.4979C615.256 39.353 615.281 39.2086 615.336 39.0739C615.39 38.9393 615.473 38.8175 615.577 38.7165C615.797 38.5245 616.08 38.4185 616.372 38.4185C616.665 38.4185 616.947 38.5245 617.167 38.7165C617.271 38.818 617.352 38.94 617.406 39.0745C617.46 39.2091 617.484 39.3533 617.479 39.4979C617.483 39.6427 617.457 39.7868 617.403 39.9213C617.349 40.0558 617.267 40.1777 617.163 40.2794C616.948 40.4771 616.666 40.5869 616.373 40.5869C616.08 40.5869 615.798 40.4771 615.583 40.2794Z" fill="#4B5561"/>
<path d="M625.536 33.753V40.5013H623.953L620.948 36.8977V40.5013H619.062V33.753H620.648L623.651 37.3567V33.753H625.536Z" fill="#4B5561"/>
<path d="M632.994 39.0257V40.5013H627.529V33.753H632.875V35.2267H629.432V36.3647H632.454V37.791H629.432V39.0257H632.994Z" fill="#4B5561"/>
<path d="M636.144 35.2589H634.053V33.7416H640.143V35.2589H638.068V40.4937H636.144V35.2589Z" fill="#4B5561"/>
<g clip-path="url(#clip3_2_1593)">
<path d="M496.613 45.9999C496.613 59.7121 485.416 70.9976 471.81 70.9976C458.204 70.9976 447.007 59.7115 447.007 45.9999C447.007 32.2868 457.942 21.0022 471.81 21.0022C485.153 21.0022 496.613 32.2874 496.613 45.9999Z" fill="#3A4552"/>
<path d="M477.404 59.1567C488.001 63.5547 486.162 52.4413 480.514 43.9317C477.312 39.1108 473.137 35.0942 470.504 33.1559C461.772 26.7265 456.381 30.626 462.547 43.3057C464.541 47.4052 467.101 50.1722 469.101 52.7802C470.628 54.7713 473.603 55.7682 472.555 56.7125C471.374 57.778 468.515 53.079 468.515 53.079C466.403 50.5096 464.39 47.7679 462.316 44.0051C457.576 35.4114 458.26 26.6402 466.839 30.4609C474.12 33.7051 481.074 42.804 483.871 49.2656C485.162 52.2497 488.683 64.0546 477.468 59.2817" fill="#96A1AE"/>
<path d="M444.452 53.4101C449.114 50.278 453.534 48.2557 461.055 45.7491C471.625 42.2265 479.579 39.8587 489.34 34.9093C493.709 32.6943 501.289 27.7268 504 23.4086C503.188 25.08 500.674 28.3331 499.537 29.7716C486.294 46.5003 458.085 45.5518 444.639 53.5829" fill="#717E8C"/>
<path d="M451.215 41.1835C455.482 41.2172 455.063 41.1748 455.113 41.2253C455.187 41.2253 458.52 47.0144 458.52 47.0647C458.52 47.0891 458.495 45.0072 458.495 42.4032C458.495 42.1025 457.675 41.2255 457.699 41.2255C458.917 41.2255 460.509 41.2505 460.509 41.2505C459.912 41.9523 459.793 41.8944 459.788 42.3283C459.771 43.7225 459.755 46.2999 459.788 49.1944C459.793 49.6284 460.111 49.796 460.633 50.5479H456.729C455.461 48.4177 453.137 44.4217 453.149 44.4334C453.167 44.4516 453.099 46.9399 453.173 48.9442C453.198 49.6065 453.497 49.8213 454.044 50.4231C454.044 50.4231 454.674 50.4061 450.985 50.4479C452.104 49.8463 451.956 49.0947 451.955 49.0696C451.915 46.2999 451.947 43.9319 451.947 42.4032C451.947 42.1526 451.93 42.1774 451.159 41.2253L451.215 41.1835ZM464.555 45.4609C464.913 44.2061 465.219 43.0848 465.365 42.3534C465.389 42.2279 465.091 41.777 464.619 41.3259L464.585 41.2558C466.864 41.2633 469.244 41.2762 469.244 41.2762C469.865 42.8045 471.282 47.0898 472.352 49.7215C472.634 50.4165 473.123 50.5483 473.123 50.5483C471.183 50.5234 467.584 50.5404 467.603 50.5234C468.572 49.6458 468.448 49.6458 468.025 48.3687H464.992C464.37 49.8219 465.186 50.5039 465.29 50.4986C464.6 50.5347 462.257 50.4986 462.257 50.4986C463.525 49.5959 463.45 49.3205 463.45 49.3205C463.798 48.0701 464.202 46.7004 464.555 45.4607L465.8 45.4609L465.265 47.1899H467.678L466.335 43.7314L465.8 45.4605L464.556 45.4602L464.555 45.4609ZM485.393 45.5861C485.751 44.3317 486.057 43.21 486.202 42.4786C486.227 42.3534 485.928 41.9024 485.456 41.4508L485.423 41.3812C487.702 41.3887 490.082 41.4014 490.082 41.4014C490.703 42.9301 492.12 47.215 493.189 49.8467C493.472 50.5425 493.959 50.6735 493.959 50.6735C492.021 50.6486 488.422 50.6656 488.44 50.6486C489.41 49.7716 489.286 49.7716 488.863 48.4939H485.829C485.208 49.9473 486.023 50.6291 486.127 50.6242C485.437 50.6599 483.094 50.6242 483.094 50.6242C484.362 49.722 484.288 49.4461 484.288 49.4461C484.636 48.1954 485.039 46.8262 485.393 45.5861H486.638C486.37 46.4512 486.103 47.3158 486.103 47.3158H488.515L487.172 43.8568C487.172 43.8568 486.905 44.7211 486.638 45.5857L485.393 45.5861ZM481.471 43.5319C481.421 41.7515 481.471 41.1756 481.471 41.1756C480.7 41.8025 481.089 41.7225 479.159 41.4012C473.597 40.4753 473.173 45.714 476.2 46.889C478.741 47.8758 479.641 48.0693 479.258 48.9939C479.133 49.2956 476.821 50.3978 474.434 48.1671L474.483 51.2749C474.782 50.9648 475.603 50.3978 475.603 50.3978C475.627 50.3978 478.19 51.5367 480.5 50.3477C484.057 48.5187 482.282 45.5579 478.487 44.3835C475.328 43.4061 478.313 41.1253 481.445 43.5566L481.471 43.5319ZM472.159 23.2723C472.159 23.3263 472.137 23.3781 472.1 23.4163C472.062 23.4546 472.01 23.4762 471.957 23.4765C471.903 23.4761 471.852 23.4545 471.814 23.4163C471.777 23.3781 471.755 23.3263 471.755 23.2723C471.755 23.1616 471.847 23.069 471.957 23.069C472.01 23.0692 472.062 23.0907 472.099 23.1287C472.137 23.1668 472.159 23.2184 472.159 23.2723ZM473.56 26.3582C473.56 26.4957 473.447 26.6092 473.311 26.6092C473.245 26.609 473.182 26.5824 473.135 26.5354C473.089 26.4884 473.062 26.4247 473.062 26.3582C473.062 26.2211 473.174 26.108 473.311 26.108C473.447 26.108 473.56 26.2209 473.56 26.3582ZM477.194 31.4015C477.194 31.5385 477.082 31.6521 476.945 31.6521C476.879 31.6516 476.816 31.6251 476.77 31.5782C476.723 31.5313 476.697 31.4678 476.696 31.4015C476.696 31.264 476.801 31.1502 476.938 31.1502C477.075 31.1506 477.194 31.264 477.194 31.4015ZM471.351 28.0968C471.351 28.1507 471.33 28.2024 471.292 28.2405C471.254 28.2786 471.203 28.3001 471.149 28.3003C471.096 28.3001 471.044 28.2787 471.007 28.2406C470.969 28.2024 470.947 28.1508 470.947 28.0968C470.947 27.9854 471.038 27.8931 471.149 27.8931C471.203 27.8933 471.254 27.9148 471.292 27.9529C471.33 27.9911 471.351 28.0428 471.351 28.0968ZM473.528 29.2561C473.528 29.3099 473.506 29.3614 473.469 29.3995C473.431 29.4375 473.38 29.459 473.326 29.4594C473.273 29.4591 473.222 29.4376 473.184 29.3996C473.146 29.3615 473.125 29.31 473.124 29.2561C473.124 29.1447 473.216 29.0526 473.326 29.0526C473.437 29.0526 473.528 29.1447 473.528 29.2561ZM470.699 26.0134C470.699 26.1509 470.587 26.2644 470.451 26.2644C470.314 26.2644 470.202 26.1515 470.202 26.0134C470.202 25.8763 470.314 25.7625 470.451 25.7625C470.587 25.7625 470.699 25.8759 470.699 26.0134ZM467.405 28.0342C467.405 28.146 467.314 28.2379 467.203 28.2379C467.15 28.2376 467.098 28.2161 467.061 28.1779C467.023 28.1398 467.001 28.0881 467.001 28.0342C467.001 27.9228 467.092 27.8305 467.203 27.8305C467.257 27.8306 467.308 27.8522 467.346 27.8903C467.384 27.9285 467.405 27.9802 467.405 28.0342ZM467.994 28.441C467.994 28.4951 467.973 28.5469 467.935 28.5851C467.897 28.6233 467.845 28.6449 467.792 28.6451C467.738 28.6449 467.687 28.6233 467.649 28.585C467.611 28.5468 467.59 28.4951 467.59 28.441C467.592 28.3885 467.614 28.3389 467.652 28.3026C467.69 28.2662 467.74 28.246 467.792 28.246C467.844 28.246 467.894 28.2662 467.932 28.3026C467.969 28.3389 467.992 28.3885 467.994 28.441ZM468.585 28.8484C468.585 28.9024 468.564 28.9542 468.526 28.9924C468.488 29.0307 468.437 29.0523 468.383 29.0526C468.33 29.0523 468.278 29.0307 468.241 28.9925C468.203 28.9542 468.181 28.9025 468.181 28.8484C468.181 28.7374 468.273 28.6453 468.383 28.6453C468.494 28.6453 468.585 28.7372 468.585 28.8484ZM467.685 29.6319C467.684 29.6858 467.663 29.7374 467.625 29.7755C467.587 29.8136 467.536 29.8352 467.483 29.8356C467.429 29.8353 467.378 29.8138 467.34 29.7757C467.302 29.7375 467.281 29.6859 467.28 29.6319C467.28 29.5205 467.372 29.4284 467.483 29.4284C467.593 29.4284 467.685 29.5205 467.685 29.6319ZM462.991 32.9523C462.991 33.0062 462.969 33.0579 462.931 33.0959C462.894 33.134 462.842 33.1554 462.789 33.1555C462.678 33.1555 462.587 33.0639 462.587 32.9523C462.587 32.8406 462.678 32.7483 462.789 32.7483C462.899 32.7483 462.991 32.8404 462.991 32.9523ZM463.861 34.0177C463.861 34.0716 463.839 34.1232 463.801 34.1613C463.764 34.1994 463.712 34.2209 463.659 34.2212C463.605 34.2209 463.554 34.1994 463.516 34.1613C463.479 34.1232 463.457 34.0717 463.457 34.0177C463.457 33.9057 463.548 33.814 463.659 33.814C463.77 33.814 463.861 33.9057 463.861 34.0177ZM463.169 51.2159C463.169 51.2698 463.148 51.3214 463.11 51.3596C463.072 51.3977 463.021 51.4192 462.967 51.4194C462.856 51.4194 462.765 51.3273 462.765 51.2159C462.765 51.1045 462.856 51.0119 462.967 51.0119C463.078 51.0119 463.169 51.1045 463.169 51.2159ZM463.294 55.9606C463.294 56.0981 463.181 56.2114 463.045 56.2114C462.909 56.2114 462.797 56.0987 462.797 55.9606C462.797 55.8235 462.909 55.7102 463.045 55.7102C463.111 55.7105 463.174 55.737 463.22 55.7838C463.267 55.8307 463.293 55.8942 463.294 55.9606ZM460.62 58.3907C460.62 58.4446 460.598 58.4961 460.561 58.5341C460.523 58.5722 460.472 58.5937 460.418 58.594C460.365 58.5937 460.314 58.5723 460.276 58.5342C460.238 58.4962 460.217 58.4446 460.216 58.3907C460.216 58.2785 460.308 58.1868 460.418 58.1868C460.529 58.1868 460.62 58.2783 460.62 58.3907ZM457.419 59.3749C457.419 59.4414 457.392 59.505 457.346 59.552C457.299 59.5989 457.236 59.6254 457.17 59.6258C457.104 59.6255 457.041 59.599 456.995 59.552C456.948 59.5051 456.922 59.4414 456.922 59.3749C456.922 59.2376 457.034 59.1241 457.17 59.1241C457.236 59.1245 457.299 59.151 457.346 59.198C457.392 59.2449 457.419 59.3085 457.419 59.3749ZM456.766 57.1831C456.766 57.3199 456.654 57.4333 456.518 57.4333C456.452 57.4329 456.39 57.4065 456.343 57.3596C456.296 57.3128 456.27 57.2494 456.27 57.1831C456.27 57.1166 456.296 57.0529 456.343 57.0058C456.389 56.9587 456.452 56.9321 456.518 56.9316C456.654 56.9322 456.766 57.0453 456.766 57.1831ZM456.394 58.5773C456.394 58.6891 456.302 58.7808 456.192 58.7808C456.081 58.7808 455.989 58.6891 455.989 58.5773C455.989 58.4663 456.081 58.3735 456.192 58.3735C456.302 58.3735 456.394 58.4656 456.394 58.5773ZM454 57.4188C454 57.4727 453.978 57.5242 453.941 57.5623C453.903 57.6004 453.852 57.6219 453.799 57.6223C453.745 57.6221 453.694 57.6006 453.656 57.5625C453.618 57.5244 453.597 57.4728 453.596 57.4188C453.596 57.3078 453.687 57.2153 453.799 57.2153C453.909 57.2153 454 57.3072 454 57.4188ZM462.361 61.3338C462.361 61.4456 462.277 61.5377 462.167 61.5377C462.056 61.5377 461.957 61.4456 461.957 61.3338C461.957 61.2224 462.048 61.1301 462.159 61.1301C462.27 61.1301 462.361 61.2222 462.361 61.3338ZM464.879 59.4706C464.879 59.6081 464.775 59.7219 464.638 59.7219C464.502 59.7219 464.382 59.6088 464.382 59.4706C464.382 59.3336 464.494 59.2202 464.63 59.2202C464.696 59.2206 464.759 59.247 464.806 59.2939C464.852 59.3408 464.879 59.4043 464.879 59.4706ZM465.167 61.8664C465.167 61.9783 465.068 62.0708 464.958 62.0708C464.904 62.0704 464.853 62.0488 464.815 62.0105C464.777 61.9723 464.755 61.9205 464.755 61.8664C464.755 61.7554 464.846 61.6634 464.958 61.6634C465.068 61.6631 465.167 61.7548 465.167 61.8664ZM475.516 59.5789C475.515 59.6327 475.494 59.6843 475.456 59.7224C475.419 59.7606 475.368 59.7822 475.314 59.7828C475.261 59.7825 475.21 59.7609 475.172 59.7227C475.134 59.6846 475.112 59.6329 475.112 59.5789C475.112 59.467 475.203 59.3754 475.314 59.3754C475.425 59.3754 475.516 59.467 475.516 59.5789ZM470.699 61.3018C470.699 61.3557 470.678 61.4074 470.64 61.4455C470.602 61.4836 470.551 61.5051 470.497 61.5053C470.444 61.505 470.393 61.4835 470.355 61.4454C470.317 61.4073 470.296 61.3557 470.295 61.3018C470.295 61.1908 470.387 61.0982 470.497 61.0982C470.608 61.0982 470.699 61.1903 470.699 61.3018ZM483.66 63.7782C483.66 63.8321 483.638 63.8837 483.601 63.9217C483.563 63.9598 483.512 63.9814 483.458 63.9817C483.405 63.9815 483.353 63.96 483.316 63.9219C483.278 63.8838 483.256 63.8322 483.256 63.7782C483.256 63.667 483.347 63.5747 483.458 63.5747C483.569 63.5747 483.66 63.6666 483.66 63.7782ZM484.716 54.1443C484.716 54.2108 484.689 54.2745 484.643 54.3215C484.596 54.3685 484.533 54.395 484.467 54.3953C484.401 54.3949 484.338 54.3684 484.291 54.3214C484.245 54.2744 484.219 54.2108 484.218 54.1443C484.218 54.0068 484.33 53.8933 484.467 53.8933C484.533 53.8935 484.596 53.9201 484.643 53.9671C484.689 54.0141 484.716 54.0778 484.716 54.1443ZM482.728 55.5067C482.728 55.5607 482.706 55.6124 482.669 55.6506C482.631 55.6887 482.579 55.7103 482.526 55.7106C482.416 55.7106 482.324 55.6183 482.324 55.5067C482.324 55.395 482.416 55.3034 482.526 55.3034C482.637 55.3034 482.728 55.3948 482.728 55.5067ZM484.687 55.8992C484.687 56.0365 484.575 56.1505 484.438 56.1505C484.301 56.1505 484.189 56.0372 484.189 55.8992C484.189 55.7621 484.301 55.6484 484.438 55.6484C484.575 55.6484 484.687 55.7621 484.687 55.8992ZM482.728 58.3269C482.728 58.3809 482.706 58.4325 482.669 58.4706C482.631 58.5087 482.579 58.5302 482.526 58.5304C482.472 58.53 482.421 58.5084 482.384 58.4703C482.346 58.4322 482.324 58.3807 482.324 58.3269C482.324 58.215 482.416 58.1229 482.526 58.1229C482.637 58.1229 482.728 58.2148 482.728 58.3269ZM487.793 52.7819C487.793 52.8931 487.701 52.9857 487.591 52.9857C487.538 52.9852 487.487 52.9636 487.449 52.9255C487.411 52.8874 487.39 52.8358 487.389 52.7819C487.389 52.6703 487.481 52.5787 487.591 52.5787C487.702 52.5787 487.793 52.6703 487.793 52.7819ZM488.283 54.0191C488.283 54.1564 488.18 54.2701 488.043 54.2701C487.906 54.2701 487.786 54.157 487.786 54.0191C487.786 53.8816 487.898 53.7685 488.035 53.7685C488.171 53.7689 488.283 53.8816 488.283 54.0191ZM491.773 55.4918C491.773 55.6291 491.662 55.7426 491.524 55.7426C491.458 55.7424 491.395 55.7159 491.348 55.6689C491.302 55.622 491.275 55.5583 491.275 55.4918C491.275 55.4253 491.302 55.3616 491.348 55.3146C491.395 55.2676 491.458 55.2411 491.524 55.2408C491.59 55.241 491.653 55.2675 491.7 55.3145C491.746 55.3616 491.773 55.4253 491.773 55.4918ZM488.228 58.1085C488.228 58.1625 488.206 58.2141 488.169 58.2521C488.131 58.2902 488.079 58.3117 488.026 58.312C487.972 58.3117 487.921 58.2902 487.883 58.2521C487.846 58.214 487.824 58.1624 487.824 58.1085C487.824 57.9967 487.915 57.9046 488.026 57.9046C488.136 57.9046 488.228 57.996 488.228 58.1085ZM490.467 55.9777C490.466 56.0316 490.445 56.0832 490.407 56.1213C490.369 56.1594 490.318 56.181 490.265 56.1813C490.212 56.1809 490.16 56.1594 490.123 56.1213C490.085 56.0832 490.063 56.0316 490.063 55.9777C490.063 55.8666 490.155 55.774 490.265 55.774C490.375 55.774 490.467 55.8659 490.467 55.9777ZM490.054 59.2669C490.054 59.3208 490.033 59.3724 489.995 59.4105C489.957 59.4486 489.906 59.4701 489.853 59.4704C489.799 59.4703 489.748 59.4489 489.71 59.4108C489.672 59.3726 489.65 59.3209 489.65 59.2669C489.65 59.1559 489.741 59.0632 489.853 59.0632C489.963 59.0632 490.054 59.1553 490.054 59.2669ZM491.003 53.8005C491.003 53.9726 490.862 54.1137 490.692 54.1137C490.522 54.1137 490.381 53.9726 490.381 53.8005C490.381 53.6286 490.522 53.4875 490.692 53.4875C490.862 53.4875 491.003 53.6286 491.003 53.8005Z" fill="#96A1AE"/>
<path d="M490.691 52.8456L490.599 53.7069L489.752 53.8012L490.606 53.8945L490.7 54.7877L490.793 53.8945L491.632 53.7846L490.785 53.7063L490.691 52.8456ZM488.826 59.2497C488.826 59.422 488.686 59.5635 488.515 59.5635C488.433 59.5632 488.354 59.53 488.296 59.4713C488.237 59.4125 488.204 59.3328 488.204 59.2497C488.204 59.0778 488.345 58.9367 488.515 58.9367C488.597 58.937 488.676 58.9701 488.734 59.0287C488.793 59.0873 488.825 59.1667 488.826 59.2497Z" fill="#96A1AE"/>
<path d="M488.517 58.295L488.424 59.1568L487.577 59.2504L488.431 59.3446L488.525 60.2369L488.618 59.3446L489.457 59.2347L488.61 59.1562L488.517 58.295ZM465.641 33.375C465.641 33.5469 465.5 33.6882 465.33 33.6882C465.248 33.688 465.169 33.6549 465.11 33.5962C465.052 33.5376 465.019 33.458 465.019 33.375C465.019 33.2027 465.159 33.0616 465.33 33.0616C465.5 33.062 465.641 33.2031 465.641 33.375Z" fill="#96A1AE"/>
<path d="M465.329 32.4195L465.236 33.2808L464.389 33.375L465.243 33.4682L465.337 34.3618L465.43 33.4682L466.269 33.3591L465.422 33.2804L465.329 32.4195ZM477.203 25.7944C477.203 25.9663 477.062 26.1079 476.891 26.1079C476.721 26.1079 476.581 25.9663 476.581 25.7944C476.581 25.6221 476.721 25.4806 476.891 25.4806C477.062 25.4806 477.203 25.6226 477.203 25.7944Z" fill="#96A1AE"/>
<path d="M476.892 24.8383L476.799 25.7003L475.952 25.7945L476.807 25.8881L476.899 26.781L476.993 25.8881L477.832 25.7781L476.984 25.6998L476.892 24.8383ZM463.146 64.2644C463.146 64.4368 463.006 64.5779 462.835 64.5779C462.753 64.5776 462.674 64.5445 462.616 64.4858C462.558 64.4271 462.525 64.3475 462.524 64.2644C462.524 64.0928 462.665 63.9508 462.835 63.9508C463.006 63.951 463.146 64.093 463.146 64.2644Z" fill="#96A1AE"/>
<path d="M462.843 63.3076L462.75 64.1696L461.903 64.2634L462.757 64.357L462.85 65.2499L462.943 64.357L463.783 64.2475L462.936 64.169L462.843 63.3076Z" fill="#96A1AE"/>
<path d="M503.998 23.4088C500.218 34.7219 485.076 43.4577 472.329 51.797C464.64 56.8298 457.005 62.6224 451.749 67.551C450.364 68.8508 452.031 67.0649 451.5 67.6139C458.835 59.0936 467.273 54.0185 471.935 50.8238C479.821 45.4191 484.306 44.057 497.91 31.4149" fill="#717E8C"/>
<path d="M447.605 51.4366C446.248 52.1062 445.032 52.768 444 53.4142L444.628 53.6446C445.53 53.0842 446.613 52.4996 447.754 51.9846L447.605 51.4366ZM454.772 64.0966C453.48 65.2328 452.21 66.3935 450.962 67.578L450.905 68.4419C452.083 67.2173 453.53 65.8959 455.2 64.4932" fill="#717E8C"/>
<path d="M477.404 59.1567C488.001 63.5546 486.162 52.4412 480.514 43.9316C477.312 39.1107 473.364 35.2864 470.503 33.1559C467.163 30.6677 466.837 30.4615 466.837 30.4615C474.296 34.0331 481.072 42.8044 483.868 49.2664C485.16 52.2503 488.681 64.0552 477.466 59.2823" fill="#96A1AE"/>
</g>
<path fill-rule="evenodd" clip-rule="evenodd" d="M321.109 56.0776L320.002 53.3791L319.159 56.0776H321.109ZM355.191 56.0776L354.86 50.6058L353.241 56.0776H355.191ZM335.518 45.9577V29.9694H317.043V46.1386L317.661 44.0775L317.803 43.6046H323.15L322.892 44.461C322.484 45.8081 321.89 47.7756 321.246 49.912L327.307 43.8015L327.501 43.6046H334.324L333.094 44.7539L324.702 52.5936L326.334 56.0776H332.465L335.518 45.9577ZM337.501 29.9694V43.6032H341.232C344.098 43.5684 347.062 43.5327 348.576 45.3285C349.437 46.3514 349.683 47.7872 349.326 49.7181C348.998 51.4941 347.434 55.6221 340.019 55.6144L337.607 55.6149L337.501 55.97V56.078H348.595L352.273 44.0721L352.417 43.6027H355.977V29.9694H337.501ZM365.964 56.0776L367.458 51.0511L364.209 56.0776H365.964Z" fill="#3A4552"/>
<path fill-rule="evenodd" clip-rule="evenodd" d="M371.154 56.0775H373.267C373.262 55.1415 373.408 54.0671 373.783 52.8329C374.525 50.3887 375.431 48.5582 376.437 47.186V29.9694H357.961V43.6022H359.253L359.31 44.2019C359.34 44.502 359.888 50.2753 359.751 55.7533C361.038 53.1335 363.291 49.127 367.072 43.8777L367.271 43.6017H374.262L374.057 44.4263L371.154 56.0775ZM378.421 29.9694V45.1268C380.471 43.553 382.752 43.2302 384.909 43.2302C387.667 43.2302 389.839 44.145 391.023 45.8057C391.934 47.0823 392.162 48.6706 391.648 50.1629L391.494 50.6116L391.02 50.6111L387.391 50.6068L386.329 50.6053L386.792 49.6582C386.801 49.6346 386.815 49.5695 386.825 49.5265C386.838 49.4623 386.854 49.3905 386.876 49.3152C387.066 48.6783 387.047 48.1925 386.821 47.8726C386.504 47.4268 385.714 47.1609 384.534 47.1055C381.849 46.9786 380.101 48.8293 378.87 53.1065C378.621 53.972 378.471 54.7565 378.421 55.4499V56.0775H384.885L384.91 55.9979H380.972L381.241 55.1367L382.074 52.4657L382.219 51.9992H391.066L390.829 52.8426L389.922 56.0775H396.898V29.9694H378.421Z" fill="#3A4552"/>
<path fill-rule="evenodd" clip-rule="evenodd" d="M365.964 56.0776L367.458 51.0511L364.209 56.0776H365.964Z" fill="#3A4552"/>
<path fill-rule="evenodd" clip-rule="evenodd" d="M373.412 43.6024H367.271L367.072 43.8783C363.291 49.1272 361.038 53.1341 359.751 55.754C359.888 50.2759 359.339 44.5027 359.31 44.2026L359.253 43.6028H352.418L352.274 44.0723L346.867 61.7227L346.604 62.581H351.315L351.455 62.1057L354.86 50.606L355.546 61.9567L355.584 62.581H360.007L360.204 62.2775L367.458 51.0508L364.283 61.7275L364.03 62.581H369.533L369.658 62.0773L374.056 44.4269L374.262 43.6024H373.412Z" fill="#3A4552"/>
<path fill-rule="evenodd" clip-rule="evenodd" d="M369.014 61.9166H364.921L369.415 46.8002L359.647 61.9166H356.209L355.296 46.7978L350.819 61.9166H347.502L352.909 44.2668H358.649C358.649 44.2668 359.525 53.3262 358.853 59.5361C358.853 59.5361 360.56 54.0504 367.611 44.2668H373.412L369.014 61.9166Z" fill="#576371"/>
<path fill-rule="evenodd" clip-rule="evenodd" d="M391.023 45.8055C389.839 44.1449 387.667 43.2301 384.909 43.2301C380.851 43.2301 376.355 44.3707 373.783 52.8333C372.666 56.5054 373.559 58.7981 374.506 60.0752C376.121 62.2545 378.924 63.0303 381.009 63.0303C383.237 63.0303 386.748 62.6666 387.934 62.1961L388.239 62.075L388.328 61.7585L390.829 52.8429L391.066 51.9995H382.219L382.074 52.4661L381.241 55.1371L380.972 55.9983H384.91L383.984 58.9172C383.802 58.9925 383.245 59.1498 381.775 59.1546C380.454 59.159 379.514 58.8048 378.984 58.1024C378.248 57.1292 378.209 55.4015 378.87 53.1068C380.102 48.8302 381.849 46.9794 384.534 47.1058C385.714 47.1613 386.504 47.4271 386.821 47.8729C387.047 48.1928 387.066 48.6787 386.876 49.3155C386.854 49.3903 386.838 49.4627 386.825 49.5269C386.815 49.5703 386.8 49.6354 386.792 49.6586L386.329 50.6057L387.391 50.6071L391.02 50.6115L391.494 50.612L391.648 50.1632C392.162 48.6705 391.934 47.0822 391.023 45.8055Z" fill="#3A4552"/>
<path fill-rule="evenodd" clip-rule="evenodd" d="M391.021 49.9473L387.392 49.9424C387.451 49.8213 387.471 49.6457 387.512 49.5048C388.14 47.4003 386.845 46.5501 384.565 46.4421C381.199 46.2833 379.377 48.9452 378.231 52.9232C376.997 57.2124 378.036 59.8308 381.778 59.8183C384.751 59.8081 384.592 59.1959 384.592 59.1959L385.818 55.3346H381.875L382.707 52.6636H390.19L387.689 61.5793C386.689 61.9759 383.369 62.3672 381.009 62.3672C377.457 62.3672 372.296 60.0001 374.418 53.0269C376.955 44.6839 381.357 43.8941 384.91 43.8941C390.102 43.8941 391.951 47.243 391.021 49.9473Z" fill="#576371"/>
<path fill-rule="evenodd" clip-rule="evenodd" d="M334.324 43.6043H327.502L327.307 43.8012L321.247 49.9117C321.89 47.7753 322.485 45.8078 322.892 44.4607L323.15 43.6043H317.803L317.662 44.0771L312.361 61.7357L312.103 62.5902H317.493L317.605 62.0638C317.668 61.8081 318.805 58.0216 320.057 53.8588L323.415 62.1748L323.582 62.5897H329.385L328.942 61.6445L324.702 52.5928L333.093 44.7531L334.324 43.6043Z" fill="#3A4552"/>
<path fill-rule="evenodd" clip-rule="evenodd" d="M316.955 61.9272H312.996L318.297 44.2686H322.255C322.255 44.2686 317.031 61.5648 316.955 61.9272ZM320.045 52.0688H320.043L327.779 44.2686H332.641L323.896 52.4383L328.342 61.9272H324.03L320.043 52.0514L320.045 52.0688Z" fill="#576371"/>
<path fill-rule="evenodd" clip-rule="evenodd" d="M348.576 45.3287C347.063 43.5325 344.099 43.5687 341.232 43.6034H336.229L336.087 44.0757L330.76 61.7348L330.502 62.5902H335.522L335.663 62.1164L337.608 55.6146L340.019 55.6141C347.435 55.6223 348.998 51.4938 349.326 49.7178C349.683 47.7874 349.438 46.3516 348.576 45.3287Z" fill="#3A4552"/>
<path fill-rule="evenodd" clip-rule="evenodd" d="M348.673 49.5974C348.147 52.446 345.658 54.9563 340.019 54.95L337.114 54.9515L335.028 61.9261H331.395L336.722 44.267H341.222C345.293 44.2178 349.679 44.1556 348.673 49.5974Z" fill="#576371"/>
<path fill-rule="evenodd" clip-rule="evenodd" d="M337.8 52.3583C339.111 52.3583 340.07 52.379 340.953 52.3626C343.607 52.3144 344.42 51.3972 345.018 49.5981C346.056 46.476 343.4 46.8046 339.418 46.8089L337.8 52.3583Z" fill="#3A4552"/>
<path fill-rule="evenodd" clip-rule="evenodd" d="M182.084 62.3407L179.721 69.1991L177.304 62.3407H174.323L178.008 72.3695H181.281L184.987 62.3407H182.084ZM200.12 67.3674C200.12 66.8313 200.279 66.3073 200.577 65.8616C200.875 65.4158 201.298 65.0684 201.793 64.8633C202.289 64.6582 202.834 64.6045 203.359 64.7091C203.885 64.8137 204.368 65.0719 204.747 65.451C205.126 65.8302 205.384 66.3131 205.489 66.8389C205.593 67.3647 205.54 67.9097 205.334 68.405C205.129 68.9002 204.782 69.3235 204.336 69.6213C203.89 69.9191 203.366 70.0779 202.83 70.0779C202.111 70.0775 201.422 69.7918 200.914 69.2836C200.406 68.7753 200.12 68.0861 200.12 67.3674ZM205.427 58.2514V63.175C205.421 63.1722 205.417 63.1685 205.413 63.1652C204.589 62.5568 203.582 62.1777 202.492 62.1777C199.72 62.1777 197.473 64.4931 197.473 67.3502C197.473 70.2063 199.719 72.5217 202.492 72.5217C203.588 72.5217 204.602 72.1598 205.427 71.5458V72.383H208.004V58.2514H205.427ZM212.379 67.3674C212.392 66.6574 212.684 65.9809 213.191 65.4835C213.697 64.986 214.379 64.7073 215.089 64.7073C215.799 64.7073 216.481 64.986 216.988 65.4835C217.495 65.9809 217.786 66.6574 217.799 67.3674C217.799 68.0863 217.513 68.7757 217.005 69.284C216.497 69.7923 215.807 70.0779 215.088 70.0779C214.37 70.0774 213.681 69.7916 213.173 69.2834C212.665 68.7751 212.379 68.086 212.379 67.3674ZM217.685 62.3514V63.175L217.671 63.1652C216.85 62.5568 215.84 62.1777 214.75 62.1777C211.978 62.1777 209.731 64.4931 209.731 67.3502C209.731 70.2063 211.978 72.5217 214.75 72.5217C215.847 72.5217 216.859 72.1598 217.685 71.5458V72.383H220.263V62.3519H217.685V62.3514ZM227.288 62.3514H225.744C225.744 62.3514 225.738 62.0302 225.738 61.7421C225.738 61.1066 225.738 60.2993 226.75 60.2993C227.01 60.2993 227.26 60.3432 227.26 60.3432V58.0105C227.26 58.0105 226.837 57.9989 226.549 58.0105C224.179 58.1025 223.136 58.9117 223.136 61.2808V62.3514H221.982V64.6631H223.136V72.3671H225.744V64.6631H227.288V62.3514ZM242.889 63.2255C243.621 62.5587 244.69 62.1432 245.837 62.1432C248.2 62.1432 249.553 63.648 249.56 65.6352L249.561 66.7586V72.3699H246.901V66.5163C246.901 65.0427 245.874 64.594 245.062 64.594C244.314 64.594 242.884 65.0063 242.965 66.8053V72.3699H240.3V62.3514H242.889V63.2255ZM254.058 68.1453C254.184 69.4046 255.238 70.323 256.528 70.323C257.546 70.323 258.221 69.921 258.621 69.1903H261.406C260.96 70.7516 259.204 72.517 256.617 72.517C253.504 72.517 251.31 70.1988 251.31 67.339C251.31 64.4791 253.662 62.16 256.617 62.16C259.574 62.16 261.677 64.6804 261.677 67.339C261.677 67.8927 261.615 68.1416 261.615 68.1416L254.058 68.1453ZM258.866 66.2072C258.641 65.0698 257.687 64.4151 256.528 64.4151C255.331 64.4151 254.396 65.1118 254.126 66.1997L258.866 66.2072ZM192.597 62.4929C192.124 62.5965 191.701 62.8582 191.397 63.2348C191.094 63.6114 190.927 64.0803 190.926 64.5641C190.926 64.586 190.932 64.6127 190.932 64.6332C192.438 64.9544 193.198 65.97 193.198 67.3081C193.198 68.813 191.968 70.033 190.463 70.033C188.959 70.033 187.554 68.7775 187.554 66.9169C187.554 64.6453 189.501 62.513 192.277 62.4467C192.326 62.4457 192.406 62.4476 192.487 62.4513C191.858 62.2122 191.19 62.0902 190.518 62.0913C187.54 62.0913 185.126 64.4278 185.126 67.3086C185.126 70.1904 187.54 72.5259 190.518 72.5259C193.496 72.5259 195.91 70.1904 195.91 67.3086C195.91 65.1403 194.542 63.282 192.597 62.4929ZM233.261 62.1348C230.282 62.1348 227.867 64.4702 227.867 67.352C227.867 69.5199 229.235 71.3791 231.182 72.1664C231.655 72.0628 232.077 71.8012 232.381 71.4247C232.684 71.0483 232.85 70.5796 232.851 70.0961C232.851 70.0741 232.846 70.0484 232.845 70.027C231.339 69.7067 230.579 68.6911 230.579 67.352C230.579 65.8462 231.809 64.6281 233.314 64.6281C234.818 64.6281 236.224 65.8822 236.224 67.7433C236.224 70.0158 234.276 72.1463 231.501 72.2144C231.431 72.2145 231.361 72.2127 231.291 72.2088C231.9 72.4404 232.564 72.5688 233.26 72.5688C236.238 72.5688 238.651 70.2324 238.651 67.3516C238.652 64.4702 236.238 62.1348 233.261 62.1348ZM224.514 20.7211C221.483 21.3883 219.199 24.1062 219.199 27.3596C219.199 27.4297 219.216 27.5128 219.219 27.5828C224.012 28.61 226.429 31.8635 226.429 36.1577C226.429 40.9804 222.514 44.8917 217.727 44.8917C212.941 44.8917 208.469 40.8679 208.469 34.9017C208.469 27.6178 214.665 20.7855 223.495 20.5689C223.655 20.5656 223.906 20.5717 224.165 20.5829C222.164 19.8193 220.041 19.4294 217.9 19.4324C208.425 19.4324 200.742 26.9208 200.742 36.1581C200.742 45.396 208.425 52.8838 217.9 52.8838C227.374 52.8838 235.056 45.3955 235.056 36.1581C235.056 29.2058 230.706 23.2443 224.514 20.7211Z" fill="#3A4552"/>
<g clip-path="url(#clip4_2_1593)">
<path d="M95.218 38.0025V54.4387C95.218 55.507 95.7405 56.0556 96.8054 56.1102C96.8186 56.1113 102.17 56.1113 102.17 56.1113V57.9552C102.17 58.1611 102.06 58.3058 101.833 58.3058H93.1479C90.4648 58.3058 90.068 56.8146 90.068 55.4603V39.1198C90.068 38.3486 90.359 37.9836 91.2618 38.0036L95.218 38.0025Z" fill="#3A4552"/>
<path d="M85.2088 38.0025L85.2099 57.2352C85.2099 58.091 84.8505 58.3058 84.1296 58.3058H80.0543V39.0641C80.0543 38.4298 80.2946 38.0036 81.2084 38.0036L85.2088 38.0025Z" fill="#3A4552"/>
<path d="M0 40.8009C0 39.253 0.00330701 37.9999 2.52213 37.9999H13.5939V39.954C13.5939 40.0931 13.5289 40.2189 13.336 40.2189L6.70106 40.2167C5.80928 40.2167 5.36063 40.6484 5.36063 41.5565V46.7121H13.1673L13.1684 48.7597C13.1684 48.9411 13.056 49.0368 12.8796 49.0368H5.36063V57.2171C5.3441 58.0061 4.95387 58.3199 4.09626 58.3043H0V40.8009Z" fill="#3A4552"/>
<path d="M21.59 38.0006V53.4765C21.59 54.8051 21.7763 55.7366 22.7001 56.2752C23.938 56.9985 26.0346 57.0096 27.2968 56.2952C28.1599 55.8089 28.4895 55.0277 28.4895 53.4809V39.0322C28.4895 38.3823 28.7353 38.0006 29.6348 38.0006H33.6418L33.6429 53.0191C33.6429 56.5077 31.4669 57.9388 29.5433 58.4696C26.9837 59.174 23.0958 59.1852 20.6806 58.4529C17.7947 57.576 16.4466 55.8512 16.4432 53.0202L16.441 39.0433C16.441 38.3689 16.6813 38.0006 17.4497 38.0006H21.59Z" fill="#3A4552"/>
<path d="M119.042 38.0036C118.026 38.0036 117.446 38.4821 117.217 39.398L113.935 53.3983L113.846 53.396L110.456 38.0036H105.822C104.928 38.0036 104.647 38.4677 104.647 39.1843V58.3058H106.604C106.92 58.3058 107.05 58.1477 107.05 57.8239V41.7916H107.359L111.549 58.3058H114.293C115.327 58.3058 115.712 57.8773 115.966 56.8457L119.728 41.7916H120.032L120.031 58.3058L123.692 58.3002C124.59 58.3002 125 57.9519 125 57.0605V38.0025L119.042 38.0036Z" fill="#3A4552"/>
<path d="M58.1274 49.0362H52.9751V58.3059H57.0493C57.7669 58.3059 58.1285 58.0933 58.1285 57.2354C58.1285 57.2354 58.1274 53.2704 58.1274 49.0362Z" fill="#3A4552"/>
<path d="M57.8272 45.075C58.0079 44.927 58.1138 44.8157 58.127 44.4974V38.0042H54.1266C53.226 38.0042 52.9758 38.4482 52.9758 39.0803V48.9108L57.8272 45.075Z" fill="#596676"/>
<path d="M40.1639 56.6998C42.4016 56.3804 43.1457 55.0383 43.1457 53.0598V39.1051C43.1457 38.2705 43.5932 38.0001 44.1708 38.0001H48.2979V51.1947C48.2979 54.4397 47.6211 56.0788 45.7174 57.462C44.7264 58.1798 42.9935 58.9988 39.239 58.9988C37.0895 58.9988 36.1337 58.8764 36.0048 58.8464C35.8229 58.8041 35.749 58.6917 35.749 58.5326V56.8289C36.632 56.8545 38.6537 56.9168 40.1639 56.6998Z" fill="#3A4552"/>
<path d="M65.9331 38.0005C63.4165 38.0005 63.4154 39.2536 63.4154 40.8015V46.0328C63.4154 46.1408 63.3691 46.1842 63.3206 46.232L59.7965 49.0352H63.4154V58.3038H67.5095C68.3671 58.3205 68.7573 58.0055 68.7716 57.2177V49.0374H76.2906C76.467 49.0374 76.5805 48.9406 76.5805 48.7603V46.7116H68.7716V41.556C68.7716 40.649 69.2214 40.2162 70.1121 40.2162L76.7492 40.2184C76.9399 40.2184 77.0071 40.0937 77.0071 39.9546V38.0005H65.9331Z" fill="#3A4552"/>
</g>
<defs>
<clipPath id="clip0_2_1593">
<rect width="112" height="36" fill="white" transform="translate(937 29)"/>
</clipPath>
<clipPath id="clip1_2_1593">
<rect width="48" height="47" fill="white" transform="translate(838 23)"/>
</clipPath>
<clipPath id="clip2_2_1593">
<rect width="76" height="48" fill="white" transform="translate(711 23)"/>
</clipPath>
<clipPath id="clip3_2_1593">
<rect width="60" height="50" fill="white" transform="translate(444 21)"/>
</clipPath>
<clipPath id="clip4_2_1593">
<rect width="125" height="21" fill="white" transform="translate(0 38)"/>
</clipPath>
</defs>
</svg>
