<svg width="38" height="28" viewBox="0 0 38 28" fill="none" xmlns="http://www.w3.org/2000/svg">
<path d="M32.1565 16.0784C30.8505 16.0858 29.7195 16.3994 28.771 16.8665C28.4208 16.1733 28.0705 15.5676 28.0122 15.1153C27.9466 14.59 27.8663 14.2689 27.9466 13.6414C28.0268 13.0139 28.3916 12.1237 28.3916 12.0508C28.3842 11.9851 28.3113 11.664 27.5598 11.6567C26.8083 11.6494 26.1589 11.8027 26.0859 11.9997C26.0129 12.1967 25.867 12.6491 25.7722 13.116C25.6408 13.8019 24.2691 16.2316 23.4884 17.5085C23.233 17.0123 23.0141 16.5745 22.9703 16.2242C22.9047 15.699 22.8243 15.3779 22.9047 14.7504C22.9849 14.1229 23.3497 13.2328 23.3497 13.1598C23.3424 13.0941 23.2695 12.7731 22.518 12.7658C21.7664 12.7585 21.1171 12.9117 21.0441 13.1087C20.9712 13.3057 20.8909 13.7727 20.7304 14.2251C20.5771 14.6775 18.753 18.7343 18.2787 19.7923C18.0379 20.3322 17.8264 20.7627 17.6731 21.0546C17.5199 21.3464 17.6658 21.0764 17.6512 21.1056C17.5199 21.3537 17.4469 21.4923 17.4469 21.4923V21.4997C17.3448 21.6821 17.2353 21.8572 17.1842 21.8572C17.1477 21.8572 17.0747 21.3683 17.1988 20.6971C17.4687 19.2888 18.1254 17.0927 18.1182 17.0124C18.1182 16.9759 18.2422 16.5891 17.6949 16.3922C17.1623 16.1952 16.9727 16.5235 16.9288 16.5235C16.885 16.5235 16.8485 16.6403 16.8485 16.6403C16.8485 16.6403 17.4396 14.1669 15.7176 14.1669C14.6377 14.1669 13.1493 15.3416 12.4123 16.4142C11.9453 16.6695 10.953 17.2094 9.90234 17.7859C9.50103 18.0048 9.08514 18.2383 8.69113 18.4499L8.61094 18.3622C6.52416 16.1368 2.66434 14.5607 2.82486 11.5692C2.88324 10.482 3.26265 7.61452 10.2381 4.14141C15.9512 1.2958 20.5261 2.07652 21.3213 3.81307C22.4523 6.29386 18.877 10.9052 12.9378 11.5692C10.6759 11.8246 9.48651 10.949 9.18743 10.6207C8.87369 10.2777 8.82991 10.2631 8.71316 10.3288C8.52346 10.4309 8.6402 10.7374 8.71316 10.9198C8.88828 11.3795 9.61792 12.1967 10.8583 12.6053C11.9454 12.9628 14.6014 13.1598 17.8118 11.9194C21.409 10.5258 24.2181 6.65868 23.3936 3.42636C22.5545 0.13567 17.0968 -0.944204 11.9382 0.887202C8.86632 1.98167 5.53914 3.68903 3.14591 5.92904C0.300297 8.58494 -0.152082 10.9052 0.0376252 11.8683C0.701674 15.305 5.43699 17.545 7.33406 19.2013C7.23921 19.2523 7.15165 19.3033 7.07139 19.3472C6.12286 19.8141 2.51112 21.7039 1.60636 23.7031C0.584858 25.965 1.76688 27.5922 2.5549 27.8111C4.99191 28.4896 7.48729 27.2711 8.83713 25.2646C10.1796 23.2581 10.0192 20.6533 9.39896 19.4639L9.37699 19.4202L10.1212 18.9824C10.6029 18.6978 11.0771 18.4351 11.493 18.2089C11.2595 18.8437 11.0917 19.5952 11.0042 20.6897C10.902 21.9739 11.4274 23.6374 12.1205 24.2941C12.427 24.5786 12.7918 24.586 13.018 24.586C13.8206 24.586 14.1854 23.9219 14.5867 23.1267C15.0829 22.1562 15.5207 21.0326 15.5207 21.0326C15.5207 21.0326 14.9734 24.0752 16.4692 24.0752C17.0164 24.0752 17.5637 23.3675 17.8118 23.0026V23.0099C17.8118 23.0099 17.8263 22.988 17.8555 22.937C17.8861 22.8917 17.9153 22.8455 17.9431 22.7984V22.7838C18.162 22.4044 18.6508 21.5361 19.3805 20.0987C20.3217 18.2454 21.2265 15.9252 21.2265 15.9252C21.2265 15.9252 21.314 16.4943 21.584 17.4282C21.7445 17.9828 22.0947 18.5884 22.3647 19.1794C22.1458 19.4858 22.0144 19.661 22.0144 19.661L22.0217 19.6683C21.8467 19.9018 21.6496 20.1499 21.4454 20.398C20.7011 21.2881 19.811 22.3024 19.6942 22.5943C19.5556 22.9371 19.5848 23.1925 19.8548 23.3969C20.0518 23.5428 20.402 23.5719 20.7741 23.5428C21.4454 23.4989 21.9123 23.3312 22.1458 23.229C22.5107 23.0976 22.9266 22.9006 23.3279 22.6088C24.0575 22.0689 24.5026 21.3028 24.4588 20.2813C24.4369 19.7195 24.2545 19.1649 24.0283 18.6396C24.094 18.5447 24.1597 18.4498 24.2253 18.3477C25.3782 16.6622 26.2683 14.809 26.2683 14.809C26.2683 14.809 26.3559 15.3781 26.6258 16.312C26.7644 16.7863 27.0417 17.3044 27.2898 17.8152C26.21 18.698 25.5314 19.7195 25.2979 20.3908C24.8674 21.6312 25.203 22.193 25.8378 22.3244C26.1223 22.3827 26.531 22.2514 26.8374 22.1201C27.2168 21.996 27.6765 21.7843 28.0997 21.4707C28.8294 20.9307 29.5298 20.1792 29.4933 19.165C29.4715 18.698 29.3474 18.2384 29.1796 17.8006C30.099 17.4212 31.2882 17.2023 32.7986 17.3847C36.0455 17.7641 36.6876 19.7925 36.5637 20.6389C36.4396 21.4853 35.7611 21.9522 35.5348 22.0982C35.3086 22.2368 35.2356 22.2879 35.2575 22.39C35.2867 22.5433 35.3889 22.536 35.5859 22.5068C35.8558 22.463 37.2932 21.8137 37.3516 20.2523C37.4392 18.2455 35.5348 16.0566 32.1565 16.0784ZM7.11517 24.5204C6.04259 25.6951 4.53223 26.1402 3.89014 25.7608C3.19698 25.3595 3.46688 23.6302 4.78761 22.3825C5.59021 21.6237 6.63361 20.9232 7.31947 20.4927C7.4727 20.3979 7.70618 20.2593 7.98345 20.0914C8.02723 20.0623 8.05641 20.0476 8.05641 20.0476C8.10749 20.0185 8.16586 19.982 8.22423 19.9455C8.71309 21.7258 8.24612 23.2873 7.11517 24.5204ZM14.9588 19.1867C14.5867 20.0987 13.7987 22.4409 13.3244 22.3095C12.9158 22.2001 12.6678 20.4271 13.2441 18.6759C13.536 17.793 14.1562 16.7424 14.521 16.3337C15.1121 15.677 15.7541 15.4581 15.9147 15.7281C16.1044 16.0784 15.1923 18.6175 14.9588 19.1867ZM21.4308 22.2804C21.2703 22.3607 21.1243 22.419 21.0587 22.3753C21.0076 22.3461 21.1243 22.2367 21.1243 22.2367C21.1243 22.2367 21.9342 21.3684 22.2552 20.9671C22.4376 20.7337 22.6565 20.4637 22.89 20.1572V20.2447C22.8901 21.2953 21.8832 21.9958 21.4308 22.2804ZM26.4215 21.1421C26.3047 21.0546 26.3194 20.7846 26.7133 19.9382C26.8666 19.6026 27.2168 19.0407 27.8224 18.5081C27.8954 18.727 27.9392 18.9385 27.9318 19.1356C27.9246 20.449 26.9907 20.9378 26.4215 21.1421Z" fill="#CF649A"/>
</svg>
