<svg width="18" height="18" viewBox="0 0 18 18" fill="none" xmlns="http://www.w3.org/2000/svg">
<path d="M8.99887 0C4.02975 0 0 4.0455 0 9.036C0 13.0275 2.5785 16.4137 6.156 17.6096C6.606 17.6929 6.77025 17.4139 6.77025 17.1742C6.77025 16.9594 6.76237 16.3912 6.75787 15.6375C4.25475 16.1831 3.726 14.4259 3.726 14.4259C3.31763 13.3819 2.727 13.104 2.727 13.104C1.90913 12.5437 2.78775 12.555 2.78775 12.555C3.69112 12.6191 4.16587 13.4865 4.16587 13.4865C4.96913 14.8669 6.273 14.4686 6.786 14.2369C6.867 13.653 7.09987 13.2547 7.3575 13.0286C5.3595 12.8002 3.258 12.0251 3.258 8.5635C3.258 7.57687 3.609 6.77025 4.185 6.138C4.09163 5.90962 3.78338 4.9905 4.27275 3.74737C4.27275 3.74737 5.02875 3.50437 6.74775 4.67325C7.4655 4.473 8.235 4.37287 9.00113 4.3695C9.765 4.374 10.5356 4.473 11.2545 4.67437C12.9724 3.5055 13.7272 3.7485 13.7272 3.7485C14.2177 4.99275 13.9095 5.91075 13.8172 6.13912C14.3944 6.77137 14.742 7.578 14.742 8.56462C14.742 12.0352 12.6382 12.7991 10.6335 13.023C10.9564 13.302 11.2444 13.8532 11.2444 14.6959C11.2444 15.9041 11.2331 16.8784 11.2331 17.1742C11.2331 17.4161 11.3951 17.6974 11.8519 17.6085C15.4237 16.4115 18 13.0264 18 9.036C18 4.0455 13.9703 0 8.99887 0Z" fill="#CCD0EA"/>
</svg>
