<svg width="36" height="28" viewBox="0 0 36 28" fill="none" xmlns="http://www.w3.org/2000/svg">
<path fill-rule="evenodd" clip-rule="evenodd" d="M7.30055 0C5.295 0 3.81099 1.75539 3.87744 3.65907C3.94122 5.48798 3.85836 7.85669 3.26206 9.78838C2.66363 11.7255 1.65228 12.953 0 13.1106V14.8894C1.65228 15.0473 2.66363 16.2743 3.26199 18.2116C3.85836 20.1433 3.94115 22.512 3.87737 24.341C3.81092 26.2444 5.29493 28 7.30083 28H27.8511C29.8567 28 31.3404 26.2446 31.2739 24.341C31.2102 22.512 31.293 20.1433 31.8893 18.2116C32.4878 16.2743 33.4966 15.0469 35.149 14.8894V13.1106C33.4967 12.9527 32.4878 11.7258 31.8893 9.78838C31.293 7.85697 31.2102 5.48798 31.2739 3.65907C31.3404 1.75566 29.8567 0 27.8511 0H7.30028H7.30055ZM23.8298 17.2358C23.8298 19.8571 21.8746 21.4469 18.6299 21.4469H13.1064C12.9484 21.4469 12.7969 21.3841 12.6851 21.2724C12.5734 21.1606 12.5106 21.0091 12.5106 20.8511V7.14898C12.5106 6.99097 12.5734 6.83944 12.6851 6.72772C12.7969 6.61599 12.9484 6.55323 13.1064 6.55323H18.5984C21.304 6.55323 23.0796 8.01878 23.0796 10.2689C23.0796 11.8482 21.8851 13.262 20.3633 13.5097V13.5921C22.4349 13.8193 23.8298 15.2541 23.8298 17.2358ZM18.0276 8.44173H14.8782V12.8903H17.5308C19.5813 12.8903 20.712 12.0645 20.712 10.5886C20.7118 9.20547 19.7397 8.44173 18.0276 8.44173ZM14.8782 14.6553V19.5577H18.1435C20.2785 19.5577 21.4094 18.701 21.4094 17.0911C21.4094 15.4811 20.2468 14.6551 18.0062 14.6551H14.8782V14.6553Z" fill="#7727ED"/>
</svg>
