<svg width="37" height="32" viewBox="0 0 37 32" fill="none" xmlns="http://www.w3.org/2000/svg">
<g clip-path="url(#clip0_2_1923)">
<path d="M29.6311 0H33.6706C35.1885 0 36.1532 1.6246 35.4266 2.95734L20.2754 30.7483C19.5175 32.1385 17.5214 32.1385 16.7634 30.7483L1.61229 2.95734C0.885703 1.6246 1.85035 0 3.36828 0H12.9874C13.7154 0 14.3859 0.39558 14.738 1.03279L17.6347 6.27564C18.0171 6.96773 19.0135 6.96322 19.3896 6.2677L22.2118 1.04868C22.5612 0.402597 23.2366 0 23.9711 0H29.6311Z" fill="#BAC0C8"/>
<path d="M3.36828 0C1.85035 0 0.885701 1.6246 1.61229 2.95734L16.7634 30.7483C17.5214 32.1385 19.5175 32.1385 20.2754 30.7483L35.4266 2.95734C36.1531 1.6246 35.1885 0 33.6706 0H29.6311L18.5194 20.3815L7.31517 0H3.36828Z" fill="#BAC0C8"/>
<path d="M7.31525 0L18.5195 20.48L29.6312 0H23.9712C23.2367 0 22.5613 0.402597 22.2119 1.04868L19.3897 6.2677C19.0136 6.96322 18.0172 6.96773 17.6348 6.27564L14.7381 1.03279C14.386 0.395581 13.7155 0 12.9875 0H7.31525Z" fill="#969FAC"/>
</g>
<defs>
<clipPath id="clip0_2_1923">
<rect width="37" height="32" fill="white"/>
</clipPath>
</defs>
</svg>
