<svg width="33" height="34" viewBox="0 0 33 34" fill="none" xmlns="http://www.w3.org/2000/svg">
<path d="M32.9814 7.66924C32.9936 7.71443 32.9999 7.76103 33 7.80784V15.0845C33 15.1779 32.9753 15.2697 32.9284 15.3505C32.8815 15.4313 32.814 15.4983 32.7328 15.5448L26.6125 19.0611V26.0308C26.6125 26.2204 26.5115 26.3955 26.3467 26.491L13.5711 33.8301C13.5419 33.8467 13.51 33.8573 13.4781 33.8685C13.4661 33.8725 13.4548 33.8798 13.4422 33.8831C13.3529 33.9066 13.259 33.9066 13.1697 33.8831C13.1551 33.8792 13.1418 33.8712 13.1278 33.8659C13.0986 33.8553 13.068 33.846 13.0401 33.8301L0.267169 26.491C0.186026 26.4445 0.118605 26.3775 0.0717 26.2967C0.0247951 26.2159 6.42929e-05 26.1242 0 26.0308L0 4.20066C0 4.15291 0.00664599 4.10649 0.0186088 4.06139C0.0225964 4.04614 0.0319008 4.03221 0.0372175 4.01696C0.0471865 3.9891 0.0564909 3.96058 0.0711121 3.93472C0.0810811 3.91748 0.0957023 3.90355 0.107665 3.88763C0.122951 3.86641 0.136907 3.84452 0.154852 3.82595C0.170137 3.8107 0.190075 3.79942 0.207355 3.78616C0.226628 3.77024 0.243908 3.753 0.26584 3.7404H0.266504L6.6533 0.0708777C6.73417 0.0244403 6.82584 0 6.91914 0C7.01244 0 7.10411 0.0244403 7.18498 0.0708777L13.5718 3.7404H13.5731C13.5944 3.75366 13.6123 3.77024 13.6316 3.7855C13.6489 3.79876 13.6681 3.8107 13.6834 3.82529C13.702 3.84452 13.7153 3.86641 13.7313 3.88763C13.7426 3.90355 13.7579 3.91748 13.7672 3.93472C13.7825 3.96125 13.7911 3.9891 13.8017 4.01696C13.807 4.03221 13.8163 4.04614 13.8203 4.06205C13.8326 4.10725 13.8388 4.15385 13.8389 4.20066V17.8355L19.1611 14.7775V7.80718C19.1611 7.76076 19.1677 7.71367 19.1797 7.66924C19.1843 7.65332 19.193 7.63939 19.1983 7.62414C19.2089 7.59628 19.2182 7.56776 19.2328 7.5419C19.2428 7.52466 19.2574 7.51073 19.2687 7.49481C19.2847 7.47359 19.298 7.4517 19.3166 7.43313C19.3319 7.41788 19.3511 7.4066 19.3684 7.39334C19.3883 7.37742 19.4056 7.36018 19.4269 7.34758H19.4276L25.815 3.67806C25.8959 3.63156 25.9875 3.60708 26.0809 3.60708C26.1742 3.60708 26.2659 3.63156 26.3467 3.67806L32.7335 7.34758C32.7561 7.36084 32.7734 7.37742 32.7933 7.39268C32.8099 7.40594 32.8292 7.41788 32.8445 7.43247C32.8631 7.4517 32.8764 7.47359 32.8923 7.49481C32.9043 7.51073 32.9189 7.52466 32.9282 7.5419C32.9435 7.56776 32.9521 7.59628 32.9628 7.62414C32.9688 7.63939 32.9774 7.65332 32.9814 7.66924ZM31.9353 14.7775V8.72639L29.7003 10.0104L26.6125 11.7844V17.8355L31.936 14.7775H31.9353ZM25.5485 25.7237V19.6686L22.5113 21.3996L13.8383 26.3392V32.4513L25.5485 25.7237ZM1.06469 5.11921V25.7237L12.7736 32.4506V26.3398L6.65662 22.8852L6.65463 22.8839L6.65197 22.8825C6.63137 22.8706 6.61409 22.8533 6.59482 22.8388C6.5782 22.8255 6.55893 22.8149 6.54431 22.8003L6.54298 22.7983C6.5257 22.7817 6.51374 22.7612 6.49911 22.7426C6.48582 22.7247 6.46987 22.7094 6.45924 22.6909L6.45857 22.6889C6.44661 22.669 6.4393 22.6451 6.43066 22.6226C6.42202 22.6027 6.41072 22.5841 6.4054 22.5629V22.5622C6.39876 22.537 6.39743 22.5105 6.39477 22.4846C6.39211 22.4647 6.3868 22.4448 6.3868 22.4249V8.17725L3.29973 6.40251L1.06469 5.11987V5.11921ZM6.9198 1.14395L1.59836 4.20066L6.91848 7.25738L12.2393 4.2L6.91848 1.14395H6.9198ZM9.6872 20.2204L12.7743 18.447V5.11921L10.5392 6.40317L7.45148 8.17725V21.505L9.6872 20.2204ZM26.0809 4.75113L20.7601 7.80784L26.0809 10.8646L31.401 7.80718L26.0809 4.75113ZM25.5485 11.7844L22.4608 10.0104L20.2257 8.72639V14.7775L23.3128 16.5509L25.5485 17.8355V11.7844ZM13.3053 25.4206L21.1097 20.9745L25.0109 18.7527L19.6941 15.698L13.5724 19.215L7.99313 22.4203L13.3053 25.4206Z" fill="#BAC0C8"/>
</svg>
