<svg width="44" height="40" viewBox="0 0 44 40" fill="none" xmlns="http://www.w3.org/2000/svg">
<g clip-path="url(#clip0_2_1889)">
<path d="M0.129578 19.9564C0.129578 23.2982 3.35433 26.4176 8.43818 28.1761C7.42296 33.3477 8.25635 37.5163 11.0396 39.1404C13.9003 40.81 18.1623 39.6543 22.2075 36.0761C26.1507 39.5098 30.1358 40.8611 32.9166 39.2323C35.7748 37.558 36.6439 33.1069 35.6007 27.7736C40.8959 26.0022 43.8579 23.3422 43.8579 19.9564C43.8579 16.6923 40.6273 13.8684 35.6119 12.1213C36.735 6.56773 35.7834 2.50043 32.8848 0.809124C30.0904 -0.821485 26.0589 0.599732 22.0578 4.12321C17.8952 0.383384 13.9036 -0.758355 11.0081 0.937645C8.2163 2.57295 7.4197 6.8173 8.43818 12.0846C3.52586 13.8176 0.129578 16.7055 0.129578 19.9564Z" fill="white"/>
<path d="M34.5497 13.8565C34.1364 13.713 33.7196 13.5801 33.2996 13.4579C33.3692 13.1715 33.4336 12.8839 33.4928 12.5951C34.4391 7.94676 33.8203 4.20207 31.7074 2.96937C29.6816 1.78711 26.3683 3.01981 23.0221 5.96642C22.6923 6.25743 22.3699 6.55683 22.0551 6.86433C21.8443 6.65986 21.6298 6.45937 21.4117 6.26294C17.9047 3.11198 14.3895 1.78433 12.2788 3.02068C10.2549 4.20624 9.65539 7.72677 10.5073 12.132C10.5921 12.5682 10.6878 13.0022 10.7944 13.4335C10.297 13.5765 9.8166 13.7289 9.35703 13.8909C5.24561 15.3414 2.61981 17.6148 2.61981 19.9727C2.61981 22.4082 5.43844 24.8509 9.72105 26.332C10.0683 26.4515 10.4184 26.5623 10.7712 26.6641C10.6566 27.1288 10.5548 27.5967 10.4661 28.0671C9.65384 32.3958 10.2882 35.8328 12.3068 37.0111C14.3917 38.2276 17.891 36.9772 21.2984 33.9633C21.5677 33.725 21.8381 33.4723 22.1088 33.2075C22.4497 33.5403 22.7998 33.8635 23.1585 34.1767C26.4591 37.0506 29.7187 38.2111 31.7356 37.0297C33.8186 35.8095 34.4954 32.1172 33.6165 27.6248C33.5495 27.2817 33.4713 26.9313 33.3836 26.5744C33.6294 26.501 33.8705 26.4252 34.1058 26.3462C38.5579 24.8537 41.4544 22.4407 41.4544 19.9727C41.4544 17.6062 38.744 15.3175 34.5497 13.8565Z" fill="#BAC0C8"/>
<path d="M33.584 24.7526C33.3717 24.8237 33.1538 24.8924 32.9318 24.959C32.4402 23.3846 31.7768 21.7104 30.9653 19.9808C31.7399 18.2921 32.3775 16.6394 32.8553 15.075C33.2525 15.1916 33.6381 15.3142 34.0097 15.4437C37.6035 16.6954 39.7955 18.5464 39.7955 19.9724C39.7955 21.4916 37.428 23.4637 33.5842 24.7526H33.584ZM31.9891 27.9507C32.3777 29.9371 32.4332 31.7331 32.1757 33.1371C31.9444 34.3987 31.4793 35.2397 30.9042 35.5766C29.6804 36.2935 27.063 35.3617 24.2406 32.9039C23.917 32.6222 23.5909 32.3213 23.264 32.0031C24.3583 30.7919 25.4519 29.3839 26.5192 27.8204C28.3967 27.6519 30.1704 27.3763 31.7789 27.0001C31.8579 27.3236 31.9284 27.6406 31.9891 27.9507ZM15.8593 35.4528C14.6636 35.8801 13.7113 35.8923 13.1357 35.5564C11.9106 34.8417 11.4015 32.0817 12.0961 28.3799C12.1786 27.9425 12.2732 27.5074 12.3796 27.0752C13.9703 27.4312 15.7311 27.6874 17.613 27.8418C18.6874 29.3717 19.8126 30.778 20.9466 32.0095C20.7056 32.2454 20.4589 32.4753 20.2067 32.6989C18.6999 34.0317 17.1901 34.9771 15.8595 35.4528H15.8593ZM10.2576 24.7432C8.36395 24.0883 6.80013 23.2371 5.72819 22.3084C4.76504 21.4737 4.27866 20.645 4.27866 19.9724C4.27866 18.5417 6.38696 16.7164 9.9032 15.4759C10.3445 15.3209 10.7903 15.179 11.2398 15.0504C11.7259 16.6498 12.3633 18.3222 13.1326 20.0133C12.3533 21.7297 11.7068 23.4286 11.2163 25.0469C10.8943 24.9536 10.5746 24.8524 10.2576 24.7432ZM12.1354 11.8093C11.4055 8.03487 11.8902 5.18774 13.1099 4.47331C14.4092 3.71226 17.282 4.79748 20.31 7.518C20.5035 7.69192 20.6979 7.874 20.8926 8.06235C19.7645 9.28826 18.6496 10.6839 17.5845 12.205C15.758 12.3763 14.0096 12.6514 12.4023 13.0199C12.3033 12.6187 12.2143 12.2149 12.1354 11.8091V11.8093ZM28.8869 15.9949C28.5072 15.3313 28.1135 14.6761 27.7059 14.0297C28.9451 14.1879 30.1322 14.3984 31.2469 14.6559C30.9123 15.7413 30.4952 16.8763 30.004 18.0397C29.6451 17.3507 29.2726 16.6689 28.8869 15.9949ZM22.0556 9.262C22.8208 10.1008 23.5871 11.0375 24.341 12.0537C22.8118 11.9805 21.2802 11.9802 19.751 12.0526C20.5055 11.0458 21.2784 10.1105 22.0556 9.262ZM15.1806 16.0064C14.7996 16.675 14.4341 17.3526 14.0844 18.0385C13.6013 16.879 13.1879 15.739 12.8504 14.6382C13.9584 14.3872 15.14 14.1822 16.3711 14.0265C15.959 14.6769 15.562 15.3371 15.1806 16.0064ZM16.4065 26.0382C15.1347 25.8945 13.9352 25.6999 12.8275 25.4559C13.1704 24.3356 13.5929 23.171 14.0863 21.9867C14.4375 22.6731 14.8046 23.3511 15.1873 24.0201C15.5778 24.7025 15.9843 25.3754 16.4065 26.0382ZM22.1015 30.8015C21.3152 29.9429 20.531 28.9933 19.765 27.9719C20.5085 28.0015 21.2666 28.0164 22.0371 28.0164C22.8287 28.0164 23.6112 27.9985 24.3813 27.9637C23.6251 29.0037 22.8615 29.9547 22.1015 30.8015ZM30.0198 21.9264C30.5388 23.1236 30.9764 24.2818 31.3239 25.3832C30.1979 25.6432 28.9822 25.8526 27.7013 26.0081C28.1118 25.3496 28.5093 24.6829 28.8936 24.0084C29.2842 23.323 29.6597 22.6288 30.0198 21.9264ZM27.4564 23.1698C26.8681 24.2039 26.2468 25.2184 25.5933 26.2116C24.4411 26.2949 23.2504 26.3378 22.0371 26.3378C20.8287 26.3378 19.6531 26.2997 18.521 26.2255C17.8506 25.2346 17.2175 24.2184 16.6231 23.179C16.0314 22.1452 15.4787 21.0891 14.9663 20.0128C15.4774 18.9362 16.0284 17.8795 16.6181 16.8448V16.8451C17.2076 15.8102 17.8357 14.7984 18.5011 13.8117C19.656 13.7234 20.8402 13.6771 22.0372 13.6771C23.2396 13.6771 24.4253 13.7237 25.5799 13.8128C26.2386 14.7979 26.8627 15.8062 27.4511 16.8359C28.0428 17.8683 28.6011 18.9199 29.1252 19.989C28.6065 21.069 28.0499 22.1299 27.4566 23.1698H27.4564ZM30.8788 4.42339C32.1792 5.18235 32.685 8.2427 31.8679 12.2561C31.8143 12.5175 31.7561 12.778 31.6933 13.0373C30.0822 12.6611 28.3326 12.3811 26.5008 12.2072C25.4337 10.6697 24.3281 9.27157 23.2181 8.06148C23.509 7.77775 23.8068 7.50138 24.1112 7.23261C26.9783 4.70774 29.6579 3.71087 30.8788 4.42339Z" fill="white"/>
<path d="M22.0371 16.4634C23.9523 16.4634 25.5048 18.0345 25.5048 19.9724C25.5048 21.9105 23.9523 23.4817 22.0371 23.4817C20.1219 23.4817 18.5693 21.9105 18.5693 19.9724C18.5693 18.0345 20.1219 16.4634 22.0371 16.4634Z" fill="#BAC0C8"/>
</g>
<defs>
<clipPath id="clip0_2_1889">
<rect width="44" height="40" fill="white"/>
</clipPath>
</defs>
</svg>
