<svg width="18" height="15" viewBox="0 0 18 15" fill="none" xmlns="http://www.w3.org/2000/svg">
<path d="M18 1.71504C17.3306 2.0059 16.6174 2.19868 15.8737 2.29229C16.6388 1.83985 17.2226 1.12887 17.4971 0.27191C16.7839 0.693148 15.9964 0.99069 15.1571 1.15673C14.4799 0.442412 13.5146 0 12.4616 0C10.4186 0 8.77387 1.64261 8.77387 3.6563C8.77387 3.94604 8.79862 4.22464 8.85938 4.48986C5.7915 4.34165 3.07687 2.88515 1.25325 0.666403C0.934875 1.21357 0.748125 1.83985 0.748125 2.51406C0.748125 3.78 1.40625 4.90219 2.38725 5.55187C1.79437 5.54073 1.21275 5.37023 0.72 5.10166C0.72 5.11281 0.72 5.12729 0.72 5.14178C0.72 6.91811 1.99912 8.39356 3.6765 8.73345C3.37612 8.8148 3.04875 8.8538 2.709 8.8538C2.47275 8.8538 2.23425 8.84043 2.01038 8.7914C2.4885 10.239 3.84525 11.3032 5.4585 11.3378C4.203 12.3106 2.60888 12.8968 0.883125 12.8968C0.5805 12.8968 0.29025 12.8834 0 12.8466C1.63462 13.8908 3.57188 14.487 5.661 14.487C12.4515 14.487 16.164 8.91509 16.164 4.08534C16.164 3.92376 16.1584 3.76774 16.1505 3.61284C16.8829 3.098 17.4982 2.45499 18 1.71504Z" fill="#03A9F4"/>
</svg>
