<svg width="174" height="191" viewBox="0 0 174 191" fill="none" xmlns="http://www.w3.org/2000/svg">
<path d="M66.3941 7.09341L69.937 5.04792L70.1873 5.48158L71.9588 4.45883C72.5195 4.1351 73.0882 3.83124 73.6639 3.54724L73.4423 3.09817C74.6262 2.51412 75.8392 2.01265 77.073 1.59376L77.234 2.06791C78.4601 1.65167 79.7071 1.31833 80.9668 1.06792L80.8692 0.576789C82.1579 0.320602 83.4596 0.149756 84.7656 0.06425L84.7983 0.56392C86.0851 0.479674 87.3761 0.479674 88.6629 0.563919L88.6956 0.064249C90.0017 0.149755 91.3034 0.320601 92.5921 0.576789L92.4944 1.06792C93.7541 1.31833 95.0011 1.65166 96.2272 2.06791L96.3882 1.59375C97.6221 2.01265 98.835 2.51412 100.019 3.09817L99.7974 3.54723C100.373 3.83123 100.942 4.1351 101.502 4.45883L103.274 5.48157L103.524 5.04792L107.067 7.09341L106.817 7.52706L110.36 9.57255L110.61 9.1389L114.153 11.1844L113.903 11.618L117.445 13.6635L117.696 13.2299L121.239 15.2754L120.988 15.709L124.531 17.7545L124.782 17.3209L128.324 19.3663L128.074 19.8L131.617 21.8455L131.867 21.4118L135.41 23.4573L135.16 23.891L138.703 25.9365L138.953 25.5028L142.496 27.5483L142.246 27.9819L145.789 30.0274L146.039 29.5938L149.582 31.6393L149.331 32.0729L152.874 34.1184L153.125 33.6848L156.668 35.7303L156.417 36.1639L158.189 37.1866C158.749 37.5104 159.297 37.8509 159.831 38.2075L160.109 37.7911C161.207 38.5243 162.247 39.3241 163.227 40.1832L162.897 40.5597C163.87 41.4133 164.783 42.3266 165.629 43.2923L166.006 42.9622C166.872 43.9502 167.671 44.9921 168.398 46.0804L167.982 46.3585C168.698 47.4308 169.343 48.5489 169.914 49.7054L170.363 49.4839C170.942 50.6577 171.445 51.8704 171.867 53.1146L171.393 53.2756C171.806 54.4917 172.141 55.7383 172.393 57.0083L172.885 56.9106C173.139 58.1886 173.311 59.4898 173.397 60.8071L172.897 60.8397C172.939 61.4803 172.96 62.1247 172.96 62.7722V64.8177H173.461V68.9086H172.96V72.9996H173.461V77.0906H172.96V81.1816H173.461V85.2726H172.96V89.3635H173.461V93.4545H172.96V97.5455H173.461V101.636H172.96V105.727H173.461V109.818H172.96V113.909H173.461V118H172.96V122.091H173.461V126.182H172.96V128.228C172.96 128.875 172.939 129.52 172.897 130.16L173.397 130.193C173.311 131.51 173.139 132.811 172.885 134.089L172.393 133.992C172.141 135.262 171.806 136.508 171.393 137.724L171.867 137.885C171.445 139.13 170.942 140.342 170.363 141.516L169.914 141.295C169.343 142.451 168.698 143.569 167.982 144.641L168.398 144.92C167.671 146.008 166.872 147.05 166.006 148.038L165.629 147.708C164.783 148.673 163.87 149.587 162.897 150.44L163.227 150.817C162.247 151.676 161.207 152.476 160.109 153.209L159.831 152.793C159.297 153.149 158.749 153.49 158.189 153.813L156.417 154.836L156.668 155.27L153.125 157.315L152.874 156.882L149.331 158.927L149.582 159.361L146.039 161.406L145.789 160.973L142.246 163.018L142.496 163.452L138.953 165.497L138.703 165.064L135.16 167.109L135.41 167.543L131.867 169.588L131.617 169.155L128.074 171.2L128.324 171.634L124.782 173.679L124.531 173.245L120.988 175.291L121.239 175.725L117.696 177.77L117.445 177.336L113.903 179.382L114.153 179.816L110.61 181.861L110.36 181.427L106.817 183.473L107.067 183.907L103.524 185.952L103.274 185.518L101.502 186.541C100.942 186.865 100.373 187.169 99.7974 187.453L100.019 187.902C98.835 188.486 97.6221 188.987 96.3882 189.406L96.2272 188.932C95.0012 189.348 93.7541 189.682 92.4944 189.932L92.5921 190.423C91.3034 190.679 90.0017 190.85 88.6956 190.936L88.6629 190.436C87.3761 190.52 86.0851 190.52 84.7983 190.436L84.7656 190.936C83.4596 190.85 82.1579 190.679 80.8692 190.423L80.9668 189.932C79.7071 189.682 78.4601 189.348 77.234 188.932L77.073 189.406C75.8392 188.987 74.6262 188.486 73.4423 187.902L73.6639 187.453C73.0882 187.169 72.5195 186.865 71.9588 186.541L70.1874 185.518L69.937 185.952L66.3941 183.907L66.6445 183.473L63.1016 181.427L62.8512 181.861L59.3083 179.816L59.5587 179.382L56.0158 177.336L55.7654 177.77L52.2225 175.725L52.4729 175.291L48.93 173.245L48.6796 173.679L45.1368 171.634L45.3871 171.2L41.8442 169.155L41.5939 169.588L38.051 167.543L38.3013 167.109L34.7585 165.064L34.5081 165.497L30.9652 163.452L31.2156 163.018L27.6727 160.973L27.4223 161.406L23.8794 159.361L24.1298 158.927L20.5869 156.882L20.3365 157.315L16.7936 155.27L17.044 154.836L15.2726 153.813C14.7118 153.49 14.1643 153.149 13.6306 152.793L13.3524 153.209C12.2547 152.476 11.2139 151.676 10.2342 150.817L10.5644 150.44C9.59084 149.587 8.67864 148.673 7.83194 147.708L7.45543 148.038C6.58921 147.05 5.7904 146.008 5.06334 144.92L5.47971 144.641C4.76336 143.569 4.11783 142.451 3.54741 141.295L3.09832 141.516C2.51936 140.342 2.01647 139.13 1.59397 137.885L2.06812 137.724C1.65515 136.508 1.3203 135.262 1.06775 133.992L0.576628 134.089C0.32247 132.811 0.150268 131.51 0.0641368 130.193L0.563808 130.16C0.521927 129.52 0.500739 128.875 0.500739 128.228V126.182H0V122.091H0.500739V118H0V113.909H0.500739V109.818H0V105.727H0.500739V101.636H0V97.5455H0.500739V93.4545H0V89.3635H0.500739V85.2726H0V81.1816H0.500739V77.0906H0V72.9996H0.500739V68.9086H0V64.8177H0.500739V62.7722C0.500739 62.1247 0.521927 61.4803 0.563808 60.8398L0.0641358 60.8071C0.150266 59.4898 0.322469 58.1886 0.576627 56.9106L1.06775 57.0083C1.3203 55.7383 1.65515 54.4917 2.06812 53.2756L1.59397 53.1146C2.01646 51.8704 2.51935 50.6577 3.09832 49.4839L3.5474 49.7054C4.11783 48.5489 4.76336 47.4308 5.4797 46.3585L5.06334 46.0804C5.7904 44.9921 6.58921 43.9502 7.45543 42.9622L7.83194 43.2923C8.67864 42.3266 9.59084 41.4133 10.5644 40.5597L10.2342 40.1832C11.2139 39.3241 12.2547 38.5243 13.3524 37.7911L13.6306 38.2075C14.1643 37.8509 14.7118 37.5104 15.2726 37.1866L17.044 36.1639L16.7936 35.7302L20.3365 33.6848L20.5869 34.1184L24.1298 32.0729L23.8794 31.6393L27.4223 29.5938L27.6727 30.0274L31.2156 27.9819L30.9652 27.5483L34.5081 25.5028L34.7584 25.9365L38.3013 23.891L38.051 23.4573L41.5939 21.4118L41.8442 21.8455L45.3871 19.8L45.1367 19.3663L48.6796 17.3209L48.93 17.7545L52.4729 15.709L52.2225 15.2754L55.7654 13.2299L56.0158 13.6635L59.5587 11.618L59.3083 11.1844L62.8512 9.1389L63.1016 9.57255L66.6445 7.52707L66.3941 7.09341Z" fill="#0D151E" stroke="#21324B" stroke-dasharray="4 4"/>
</svg>
